<svg width="15" height="16" viewBox="0 0 15 16" fill="none" xmlns="http://www.w3.org/2000/svg">
<path d="M12 12.5C12.3978 12.5 12.7794 12.658 13.0607 12.9393C13.342 13.2206 13.5 13.6022 13.5 14C13.5 14.3978 13.342 14.7794 13.0607 15.0607C12.7794 15.342 12.3978 15.5 12 15.5C11.6022 15.5 11.2206 15.342 10.9393 15.0607C10.658 14.7794 10.5 14.3978 10.5 14C10.5 13.1675 11.1675 12.5 12 12.5ZM0 0.5H2.4525L3.1575 2H14.25C14.4489 2 14.6397 2.07902 14.7803 2.21967C14.921 2.36032 15 2.55109 15 2.75C15 2.8775 14.9625 3.005 14.91 3.125L12.225 7.9775C11.97 8.435 11.475 8.75 10.9125 8.75H5.325L4.65 9.9725L4.6275 10.0625C4.6275 10.1122 4.64725 10.1599 4.68242 10.1951C4.71758 10.2302 4.76527 10.25 4.815 10.25H13.5V11.75H4.5C4.10218 11.75 3.72064 11.592 3.43934 11.3107C3.15804 11.0294 3 10.6478 3 10.25C3 9.9875 3.0675 9.74 3.18 9.53L4.2 7.6925L1.5 2H0V0.5ZM4.5 12.5C4.89782 12.5 5.27936 12.658 5.56066 12.9393C5.84196 13.2206 6 13.6022 6 14C6 14.3978 5.84196 14.7794 5.56066 15.0607C5.27936 15.342 4.89782 15.5 4.5 15.5C4.10218 15.5 3.72064 15.342 3.43934 15.0607C3.15804 14.7794 3 14.3978 3 14C3 13.1675 3.6675 12.5 4.5 12.5ZM11.25 7.25L13.335 3.5H3.855L5.625 7.25H11.25Z" fill="white"/>
</svg>
