<svg width="18" height="18" viewBox="0 0 18 18" fill="none" xmlns="http://www.w3.org/2000/svg">
<g clip-path="url(#clip0_875_11635)">
<path d="M10.5769 8.99836L17.6649 1.91036C17.8658 1.69987 17.9763 1.41917 17.9729 1.12827C17.9694 0.837367 17.8524 0.559341 17.6467 0.353627C17.4409 0.147913 17.1629 0.0308345 16.872 0.0274206C16.5811 0.0240066 16.3004 0.134528 16.0899 0.335357L9.00192 7.42336L1.91392 0.336357C1.70344 0.135527 1.42274 0.0250065 1.13184 0.0284205C0.840934 0.0318345 0.562907 0.148913 0.357193 0.354627C0.151479 0.560341 0.0344011 0.838367 0.0309871 1.12927C0.0275731 1.42017 0.138094 1.70087 0.338924 1.91136L7.42692 8.99836L0.339924 16.0854C0.229819 16.1843 0.14256 16.3061 0.0841959 16.4422C0.0258317 16.5782 -0.00224109 16.7254 0.00192388 16.8734C-0.00711849 17.0235 0.0157855 17.1738 0.0691236 17.3143C0.122462 17.4549 0.20502 17.5826 0.311345 17.6889C0.417671 17.7953 0.545345 17.8778 0.685934 17.9312C0.826523 17.9845 0.976829 18.0074 1.12692 17.9984C1.27468 18.0025 1.42157 17.9745 1.55745 17.9163C1.69333 17.8581 1.81496 17.7712 1.91392 17.6614L9.00192 10.5734L16.0889 17.6604C16.1905 17.7669 16.3127 17.8518 16.4481 17.9098C16.5834 17.9677 16.7292 17.9976 16.8764 17.9976C17.0237 17.9976 17.1694 17.9677 17.3048 17.9098C17.4401 17.8518 17.5623 17.7669 17.6639 17.6604C17.7706 17.5588 17.8556 17.4367 17.9137 17.3013C17.9717 17.1659 18.0016 17.0202 18.0016 16.8729C18.0016 16.7256 17.9717 16.5798 17.9137 16.4444C17.8556 16.3091 17.7706 16.1869 17.6639 16.0854L10.5769 8.99836Z" fill="#16EBC3"/>
</g>
<defs>
<clipPath id="clip0_875_11635">
<rect width="18" height="18" fill="white"/>
</clipPath>
</defs>
</svg>
