<svg width="1100" height="400" viewBox="0 0 1100 400" fill="none" xmlns="http://www.w3.org/2000/svg">
<g clip-path="url(#clip0_276_1254)">
<g filter="url(#filter0_f_276_1254)">
<path opacity="0.7" d="M9.77062 112.496L-14.0654 135.238L-42.6189 118.513L-18.6816 95.8491L9.77062 112.496Z" fill="#1042F3"/>
<path opacity="0.7" d="M37.2569 86.5497L13.4209 109.291L-15.1326 92.5658L8.80474 69.9023L37.2569 86.5497Z" fill="#AF49FF"/>
<path opacity="0.7" d="M34.4816 61.8815L37.2554 86.5499L8.80323 69.9025L6.02229 45.3079L34.4816 61.8815Z" fill="#4DFF49"/>
<path opacity="0.7" d="M-2.94836 39.2942L-0.167418 63.8887L-24.1048 86.5523L-26.848 61.9743L-2.94836 39.2942Z" fill="#FF6A49"/>
<path opacity="0.7" d="M-11.5597 33.8289L-8.77875 58.4234L-32.7161 81.087L-35.4593 56.509L-11.5597 33.8289Z" fill="#FF6A49"/>
<path opacity="0.7" d="M3.70203 44.9285L6.48297 69.523L-17.4544 92.1866L-20.1976 67.6086L3.70203 44.9285Z" fill="#FF6A49"/>
<path opacity="0.7" d="M64.6769 60.5653L40.8408 83.3066L12.2873 66.5814L36.2247 43.9179L64.6769 60.5653Z" fill="#FF6A49"/>
<path opacity="0.7" d="M61.9035 35.8971L64.6773 60.5655L36.2251 43.9181L33.4442 19.3235L61.9035 35.8971Z" fill="#4DFF49"/>
<path opacity="0.7" d="M247.7 85.0942L223.864 107.835L195.311 91.1103L219.248 68.4467L247.7 85.0942Z" fill="#1042F3"/>
<path opacity="0.7" d="M246.747 93.31L222.911 116.051L194.358 99.3261L218.295 76.6625L246.747 93.31Z" fill="#1042F3"/>
<path opacity="0.7" d="M244.925 60.4264L247.699 85.0948L219.247 68.4474L216.466 43.8528L244.925 60.4264Z" fill="#AF49FF"/>
<path opacity="0.7" d="M250.13 57.1852L252.904 81.8536L224.452 65.2062L221.671 40.6116L250.13 57.1852Z" fill="#AF49FF"/>
<path opacity="0.7" d="M255.335 53.9435L258.109 78.6119L229.657 61.9645L226.876 37.3699L255.335 53.9435Z" fill="#AF49FF"/>
<path opacity="0.7" d="M183.706 46.9023L159.87 69.6435L131.317 52.9184L155.254 30.2548L183.706 46.9023Z" fill="#FF4975"/>
<path opacity="0.7" d="M180.933 22.234L183.707 46.9025L155.254 30.255L152.473 5.66046L180.933 22.234Z" fill="#FF4975"/>
<path opacity="0.7" d="M152.474 5.6604L155.254 30.255L131.317 52.9185L128.574 28.3405L152.474 5.6604Z" fill="#0019FD"/>
<path opacity="0.7" d="M147.999 -2.24487L150.78 22.3497L126.842 45.0132L124.099 20.4352L147.999 -2.24487Z" fill="#B23352"/>
<path opacity="0.7" d="M188.657 38.772L184.575 14.3595L155.334 -0.857498L159.447 23.5287L188.657 38.772Z" fill="#0019FD"/>
<path opacity="0.7" d="M194.206 29.0596L190.124 4.6471L160.882 -10.5699L164.996 13.8163L194.206 29.0596Z" fill="#0019FD"/>
<path opacity="0.7" d="M119.712 8.71036L95.876 31.4516L67.3225 14.7265L91.2598 -7.93707L119.712 8.71036Z" fill="#4DFF49"/>
<path opacity="0.7" d="M116.939 -15.9579L119.712 8.71056L91.2603 -7.93688L88.4793 -32.5314L116.939 -15.9579Z" fill="#FF4975"/>
<g opacity="0.7" filter="url(#filter1_d_276_1254)">
<path d="M121.359 -18.2718L124.132 6.39659L95.6802 -10.2508L92.8992 -34.8454L121.359 -18.2718Z" fill="#FF4975"/>
</g>
<g opacity="0.7" filter="url(#filter2_d_276_1254)">
<path d="M128.778 -23.9427L131.552 0.725694L103.1 -15.9217L100.319 -40.5163L128.778 -23.9427Z" fill="#FF4975"/>
</g>
<path opacity="0.7" d="M136.198 -29.6136L138.972 -4.9452L110.52 -21.5926L107.739 -46.1872L136.198 -29.6136Z" fill="#FF4975"/>
<path opacity="0.7" d="M88.4794 -32.5315L91.2603 -7.93694L67.323 14.7266L64.5798 -9.85139L88.4794 -32.5315Z" fill="#16EBC3"/>
<path opacity="0.7" d="M13.2198 142.122L-10.6162 164.864L-39.1697 148.139L-15.2324 125.475L13.2198 142.122Z" fill="#FF6A49"/>
<path opacity="0.7" d="M10.4465 117.454L13.2203 142.123L-15.2319 125.475L-18.0129 100.881L10.4465 117.454Z" fill="#4DFF49"/>
<path opacity="0.7" d="M68.1261 90.1913L44.2901 112.933L15.7365 96.2074L39.6739 73.5439L68.1261 90.1913Z" fill="#D0FF49"/>
<path opacity="0.7" d="M65.3527 65.5226L68.1265 90.191L39.6743 73.5436L36.8934 48.949L65.3527 65.5226Z" fill="#4DFF49"/>
<path opacity="0.7" d="M95.7394 64.3212L71.9033 87.0625L43.3498 70.3373L67.2872 47.6738L95.7394 64.3212Z" fill="#D0FF49"/>
<path opacity="0.7" d="M251.151 114.721L227.315 137.462L198.762 120.737L222.699 98.0732L251.151 114.721Z" fill="#FF6A49"/>
<path opacity="0.7" d="M250.909 121.059L227.073 143.8L198.52 127.075L222.457 104.412L250.909 121.059Z" fill="#FF6A49"/>
<path opacity="0.7" d="M248.378 90.0519L251.152 114.72L222.7 98.0729L219.919 73.4783L248.378 90.0519Z" fill="#AF49FF"/>
<path opacity="0.7" d="M155.923 35.2864L158.704 59.8809L134.766 82.5445L132.023 57.9665L155.923 35.2864Z" fill="#D0FF49"/>
<path opacity="0.7" d="M123.163 38.3363L99.3272 61.0776L70.7736 44.3524L94.711 21.6889L123.163 38.3363Z" fill="#1042F3"/>
<path opacity="0.7" d="M14.0246 147.156L16.7984 171.825L-11.6538 155.177L-14.4347 130.583L14.0246 147.156Z" fill="#4DFF49"/>
<path opacity="0.7" d="M41.5109 121.21L44.2847 145.879L15.8325 129.231L13.0516 104.637L41.5109 121.21Z" fill="#4992FF"/>
<path opacity="0.7" d="M96.5461 69.3556L99.3199 94.024L70.8677 77.3766L68.0867 52.782L96.5461 69.3556Z" fill="#4DFF49"/>
<path opacity="0.7" d="M254.73 144.423L230.894 167.165L202.34 150.439L226.277 127.776L254.73 144.423Z" fill="#FFC149"/>
<path opacity="0.7" d="M251.956 119.755L254.73 144.423L226.278 127.776L223.497 103.181L251.956 119.755Z" fill="#585858"/>
<path opacity="0.7" d="M159.501 64.989L162.282 89.5836L138.344 112.247L135.601 87.6691L159.501 64.989Z" fill="#D0FF49"/>
<path opacity="0.7" d="M158.739 87.1352L134.903 109.876L106.35 93.1513L130.287 70.4877L158.739 87.1352Z" fill="#1042F3"/>
<path opacity="0.7" d="M126.741 68.039L102.905 90.7802L74.3518 74.0551L98.2891 51.3915L126.741 68.039Z" fill="#4992FF"/>
<path opacity="0.7" d="M255.47 149.419L258.244 174.088L229.792 157.44L227.011 132.846L255.47 149.419Z" fill="#1042F3"/>
<path opacity="0.7" d="M55.8253 250.249L31.9893 272.991L3.43574 256.266L27.3731 233.602L55.8253 250.249Z" fill="#AF49FF"/>
<g opacity="0.7" filter="url(#filter4_d_276_1254)">
<path d="M55.2179 261.205L31.3819 283.947L2.82832 267.222L26.7657 244.558L55.2179 261.205Z" fill="#AF49FF"/>
</g>
<g opacity="0.7" filter="url(#filter5_d_276_1254)">
<path d="M54.7491 274.804L30.9131 297.545L2.35957 280.82L26.2969 258.156L54.7491 274.804Z" fill="#AF49FF"/>
</g>
<g opacity="0.7" filter="url(#filter6_d_276_1254)">
<path d="M54.2804 288.402L30.4444 311.144L1.89082 294.418L25.8282 271.755L54.2804 288.402Z" fill="#AF49FF"/>
</g>
<path opacity="0.7" d="M53.0519 225.581L55.8258 250.25L27.3735 233.602L24.5926 209.008L53.0519 225.581Z" fill="#FF49CC"/>
<path opacity="0.7" d="M23.8273 231.154L-0.00876131 253.895L-28.5623 237.17L-4.62495 214.506L23.8273 231.154Z" fill="#1042F3"/>
<path opacity="0.7" d="M-7.40539 189.911L-4.62445 214.506L-28.5618 237.169L-31.305 212.591L-7.40539 189.911Z" fill="#D0FF49"/>
<path opacity="0.7" d="M179.302 281.591L155.466 304.332L126.912 287.607L150.85 264.944L179.302 281.591Z" fill="#4DFF49"/>
<path opacity="0.7" d="M176.528 256.922L179.302 281.591L150.85 264.943L148.069 240.349L176.528 256.922Z" fill="#1042F3"/>
<path opacity="0.7" d="M52.077 183.061L54.858 207.656L30.9206 230.319L28.1774 205.741L52.077 183.061Z" fill="#D0FF49"/>
<path opacity="0.7" d="M51.3136 205.207L27.4776 227.948L-1.07598 211.223L22.8614 188.56L51.3136 205.207Z" fill="#00FDCE"/>
<path opacity="0.7" d="M48.5402 180.539L51.314 205.207L22.8618 188.56L20.0809 163.965L48.5402 180.539Z" fill="#4DFF49"/>
<path opacity="0.7" d="M20.0829 163.965L22.8638 188.56L-1.07353 211.223L-3.81671 186.645L20.0829 163.965Z" fill="#FF4975"/>
<path opacity="0.7" d="M203.95 230.938L206.724 255.607L178.272 238.959L175.491 214.365L203.95 230.938Z" fill="#FFC149"/>
<path opacity="0.7" d="M78.7355 179.223L54.8994 201.964L26.3459 185.239L50.2833 162.575L78.7355 179.223Z" fill="#D0FF49"/>
<path opacity="0.7" d="M75.9621 154.554L78.7359 179.222L50.2837 162.575L47.5028 137.98L75.9621 154.554Z" fill="#4DFF49"/>
<path opacity="0.7" d="M47.5028 137.981L50.2838 162.575L26.3464 185.239L23.6032 160.661L47.5028 137.981Z" fill="#D0FF49"/>
<path opacity="0.7" d="M234.339 229.736L210.503 252.478L181.949 235.752L205.887 213.089L234.339 229.736Z" fill="#1042F3"/>
<path opacity="0.7" d="M231.566 205.068L234.339 229.736L205.887 213.089L203.106 188.494L231.566 205.068Z" fill="#4DFF49"/>
<path opacity="0.7" d="M203.104 188.494L205.885 213.089L181.948 235.752L179.205 211.174L203.104 188.494Z" fill="#D0FF49"/>
<path opacity="0.7" d="M199.568 185.972L202.341 210.641L173.889 193.993L171.108 169.399L199.568 185.972Z" fill="#4DFF49"/>
<path opacity="0.7" d="M107.114 131.206L109.895 155.801L85.9577 178.464L83.2145 153.886L107.114 131.206Z" fill="#D0FF49"/>
<path opacity="0.7" d="M110.536 135.113L113.317 159.708L89.3796 182.371L86.6364 157.793L110.536 135.113Z" fill="#D0FF49"/>
<path opacity="0.7" d="M113.96 139.02L116.741 163.614L92.8034 186.278L90.0602 161.7L113.96 139.02Z" fill="#D0FF49"/>
<path opacity="0.7" d="M75.118 112.111L77.899 136.705L53.9616 159.369L51.2184 134.791L75.118 112.111Z" fill="#4DFF49"/>
<path opacity="0.7" d="M261.759 203.752L237.923 226.493L209.369 209.768L233.307 187.104L261.759 203.752Z" fill="#00FDCE"/>
<path opacity="0.7" d="M258.986 179.083L261.759 203.752L233.307 187.104L230.526 162.51L258.986 179.083Z" fill="#4DFF49"/>
<g opacity="0.7" filter="url(#filter7_d_276_1254)">
<path d="M261.948 173.468L264.722 198.136L236.27 181.489L233.489 156.894L261.948 173.468Z" fill="#4DFF49"/>
</g>
<g opacity="0.7" filter="url(#filter8_d_276_1254)">
<path d="M266.169 169.717L268.943 194.385L240.491 177.738L237.71 153.143L266.169 169.717Z" fill="#4DFF49"/>
</g>
<path opacity="0.7" d="M230.526 162.51L233.307 187.104L209.37 209.768L206.627 185.19L230.526 162.51Z" fill="#0019FD"/>
<path opacity="0.7" d="M229.763 184.656L205.927 207.397L177.373 190.672L201.311 168.008L229.763 184.656Z" fill="#FF6A49"/>
<path opacity="0.7" d="M226.989 159.987L229.763 184.656L201.311 168.008L198.53 143.414L226.989 159.987Z" fill="#4DFF49"/>
<path opacity="0.7" d="M198.53 143.414L201.311 168.008L177.374 190.672L174.631 166.094L198.53 143.414Z" fill="#D0FF49"/>
<path opacity="0.7" d="M197.765 165.559L173.929 188.301L145.375 171.576L169.313 148.912L197.765 165.559Z" fill="#1042F3"/>
<path opacity="0.7" d="M194.991 140.891L197.765 165.56L169.313 148.912L166.532 124.318L194.991 140.891Z" fill="#FFC149"/>
<path opacity="0.7" d="M67.0254 114.148L69.2839 134.122L49.8436 152.528L47.6158 132.567L67.0254 114.148Z" fill="#4DFF49"/>
</g>
<g filter="url(#filter9_f_276_1254)">
<path opacity="0.7" d="M1040.62 98.5564L1012.91 91.0639L1012.67 62.9337L1040.37 70.534L1040.62 98.5564Z" fill="#1042F3"/>
<path opacity="0.7" d="M1057.88 85.7842L1040.62 98.5561L1040.37 70.5337L1057.57 57.7888L1057.88 85.7842Z" fill="#4DFF49"/>
<path opacity="0.7" d="M1057.57 57.7891L1040.38 70.5341L1012.67 62.9337L1029.87 50.2236L1057.57 57.7891Z" fill="#D0FF49"/>
<path opacity="0.7" d="M1040.62 66.8792L1012.91 59.3866L1012.67 31.2564L1040.37 38.8568L1040.62 66.8792Z" fill="#1042F3"/>
<path opacity="0.7" d="M1057.88 54.1074L1040.62 66.8793L1040.37 38.857L1057.57 26.112L1057.88 54.1074Z" fill="#4DFF49"/>
<path opacity="0.7" d="M1057.57 26.1119L1040.38 38.8568L1012.67 31.2565L1029.87 18.5463L1057.57 26.1119Z" fill="#D0FF49"/>
<path opacity="0.7" d="M1040.62 35.2024L1012.91 27.7099L1012.67 -0.420318L1040.37 7.18003L1040.62 35.2024Z" fill="#1042F3"/>
<path opacity="0.7" d="M1057.88 22.4307L1040.62 35.2026L1040.37 7.1802L1057.57 -5.56473L1057.88 22.4307Z" fill="#4DFF49"/>
<path opacity="0.7" d="M1057.57 -5.56439L1040.38 7.18054L1012.67 -0.419803L1029.87 -13.13L1057.57 -5.56439Z" fill="#D0FF49"/>
<path opacity="0.7" d="M1040.62 3.52564L1012.91 -3.96687L1012.67 -32.0971L1040.37 -24.4967L1040.62 3.52564Z" fill="#1042F3"/>
<path opacity="0.7" d="M1057.88 -9.2461L1040.62 3.52582L1040.37 -24.4966L1057.57 -37.2415L1057.88 -9.2461Z" fill="#4DFF49"/>
<path opacity="0.7" d="M1072.38 107.317L1044.66 99.8241L1044.42 71.6939L1072.13 79.2943L1072.38 107.317Z" fill="#1042F3"/>
<path opacity="0.7" d="M1089.63 94.5439L1072.38 107.316L1072.13 79.2935L1089.32 66.5486L1089.63 94.5439Z" fill="#4DFF49"/>
<path opacity="0.7" d="M1089.32 66.5489L1072.13 79.2938L1044.42 71.6935L1061.62 58.9833L1089.32 66.5489Z" fill="#D0FF49"/>
<path opacity="0.7" d="M1072.38 75.6394L1044.66 68.1469L1044.42 40.0167L1072.13 47.617L1072.38 75.6394Z" fill="#1042F3"/>
<path opacity="0.7" d="M1089.63 62.8677L1072.38 75.6396L1072.13 47.6172L1089.32 34.8723L1089.63 62.8677Z" fill="#4DFF49"/>
<path opacity="0.7" d="M1089.32 34.8721L1072.13 47.6171L1044.42 40.0167L1061.62 27.3066L1089.32 34.8721Z" fill="#D0FF49"/>
<path opacity="0.7" d="M1072.38 43.9631L1044.66 36.4706L1044.42 8.34042L1072.13 15.9408L1072.38 43.9631Z" fill="#1042F3"/>
<path opacity="0.7" d="M1089.63 31.1909L1072.38 43.9628L1072.13 15.9405L1089.32 3.19553L1089.63 31.1909Z" fill="#4DFF49"/>
<path opacity="0.7" d="M1089.32 3.19538L1072.13 15.9403L1044.42 8.33996L1061.62 -4.37019L1089.32 3.19538Z" fill="#D0FF49"/>
<path opacity="0.7" d="M1072.38 12.2859L1044.66 4.79338L1044.42 -23.3368L1072.13 -15.7365L1072.38 12.2859Z" fill="#1042F3"/>
<path opacity="0.7" d="M1089.63 -0.485849L1072.38 12.2861L1072.13 -15.7363L1089.32 -28.4812L1089.63 -0.485849Z" fill="#4DFF49"/>
<path opacity="0.7" d="M1104.13 116.013L1076.41 108.52L1076.17 80.3902L1103.88 87.9906L1104.13 116.013Z" fill="#1042F3"/>
<path opacity="0.7" d="M1121.38 103.242L1104.13 116.014L1103.88 87.9912L1121.07 75.2463L1121.38 103.242Z" fill="#4DFF49"/>
<path opacity="0.7" d="M1121.07 75.2462L1103.88 87.9911L1076.18 80.3907L1093.38 67.6806L1121.07 75.2462Z" fill="#D0FF49"/>
<path opacity="0.7" d="M1104.13 84.3367L1076.41 76.8442L1076.17 48.714L1103.88 56.3143L1104.13 84.3367Z" fill="#1042F3"/>
<path opacity="0.7" d="M1121.38 71.5644L1104.13 84.3364L1103.88 56.314L1121.07 43.5691L1121.38 71.5644Z" fill="#4DFF49"/>
<path opacity="0.7" d="M1121.07 43.5689L1103.88 56.3138L1076.18 48.7135L1093.38 36.0033L1121.07 43.5689Z" fill="#D0FF49"/>
<path opacity="0.7" d="M1104.13 52.6594L1076.41 45.1669L1076.17 17.0367L1103.88 24.6371L1104.13 52.6594Z" fill="#1042F3"/>
<path opacity="0.7" d="M1121.38 39.8877L1104.13 52.6596L1103.88 24.6372L1121.07 11.8923L1121.38 39.8877Z" fill="#4DFF49"/>
<path opacity="0.7" d="M1121.07 11.8922L1103.88 24.6371L1076.18 17.0367L1093.38 4.32659L1121.07 11.8922Z" fill="#D0FF49"/>
<path opacity="0.7" d="M1104.13 20.9827L1076.41 13.4902L1076.17 -14.64L1103.88 -7.03969L1104.13 20.9827Z" fill="#1042F3"/>
<path opacity="0.7" d="M1121.38 8.21093L1104.13 20.9828L1103.88 -7.03952L1121.07 -19.7845L1121.38 8.21093Z" fill="#4DFF49"/>
<path opacity="0.7" d="M1121.07 -19.7846L1103.88 -7.03967L1076.18 -14.64L1093.38 -27.3502L1121.07 -19.7846Z" fill="#D0FF49"/>
<path opacity="0.7" d="M1135.88 124.9L1108.16 117.408L1107.93 89.2774L1135.63 96.8778L1135.88 124.9Z" fill="#1042F3"/>
<path opacity="0.7" d="M1135.88 93.2239L1108.16 85.7314L1107.93 57.6012L1135.63 65.2015L1135.88 93.2239Z" fill="#1042F3"/>
<path opacity="0.7" d="M1135.88 61.5471L1108.16 54.0546L1107.93 25.9244L1135.63 33.5248L1135.88 61.5471Z" fill="#1042F3"/>
<path opacity="0.7" d="M1135.88 29.8699L1108.16 22.3774L1107.93 -5.75284L1135.63 1.84751L1135.88 29.8699Z" fill="#1042F3"/>
<path opacity="0.7" d="M1135.88 -1.80688L1108.16 -9.29939L1107.93 -37.4296L1135.63 -29.8292L1135.88 -1.80688Z" fill="#1042F3"/>
<path opacity="0.7" d="M1019.96 113.982L992.24 106.49L992.003 78.3595L1019.71 85.9598L1019.96 113.982Z" fill="#1042F3"/>
<path opacity="0.7" d="M1037.21 101.21L1019.96 113.982L1019.71 85.9595L1036.9 73.2146L1037.21 101.21Z" fill="#4DFF49"/>
<path opacity="0.7" d="M1036.9 73.2144L1019.71 85.9594L992.004 78.359L1009.2 65.6489L1036.9 73.2144Z" fill="#D0FF49"/>
<path opacity="0.7" d="M1019.96 82.3054L992.24 74.8129L992.003 46.6827L1019.71 54.2831L1019.96 82.3054Z" fill="#1042F3"/>
<path opacity="0.7" d="M1037.21 69.5327L1019.96 82.3046L1019.71 54.2823L1036.9 41.5373L1037.21 69.5327Z" fill="#4DFF49"/>
<path opacity="0.7" d="M1036.9 41.5382L1019.71 54.2831L992.004 46.6827L1009.2 33.9726L1036.9 41.5382Z" fill="#D0FF49"/>
<path opacity="0.7" d="M1019.96 50.6282L992.24 43.1357L992.003 15.0055L1019.71 22.6058L1019.96 50.6282Z" fill="#1042F3"/>
<path opacity="0.7" d="M1037.21 37.8564L1019.96 50.6284L1019.71 22.606L1036.9 9.86105L1037.21 37.8564Z" fill="#4DFF49"/>
<path opacity="0.7" d="M1036.9 9.86091L1019.71 22.6058L992.004 15.0055L1009.2 2.29534L1036.9 9.86091Z" fill="#D0FF49"/>
<path opacity="0.7" d="M1019.96 18.9514L992.24 11.4589L992.003 -16.6713L1019.71 -9.07094L1019.96 18.9514Z" fill="#1042F3"/>
<path opacity="0.7" d="M1037.21 6.17968L1019.96 18.9516L1019.71 -9.07077L1036.9 -21.8157L1037.21 6.17968Z" fill="#4DFF49"/>
<path opacity="0.7" d="M1036.9 -21.8159L1019.71 -9.07092L992.004 -16.6713L1009.2 -29.3814L1036.9 -21.8159Z" fill="#D0FF49"/>
<path opacity="0.7" d="M1051.71 122.742L1023.99 115.249L1023.76 87.1192L1051.46 94.7196L1051.71 122.742Z" fill="#1042F3"/>
<path opacity="0.7" d="M1068.96 109.97L1051.71 122.742L1051.46 94.7198L1068.66 81.9748L1068.96 109.97Z" fill="#4DFF49"/>
<path opacity="0.7" d="M1068.65 81.9747L1051.46 94.7196L1023.76 87.1193L1040.96 74.4091L1068.65 81.9747Z" fill="#D0FF49"/>
<path opacity="0.7" d="M1051.71 91.0657L1023.99 83.5732L1023.76 55.443L1051.46 63.0433L1051.71 91.0657Z" fill="#1042F3"/>
<path opacity="0.7" d="M1068.96 78.2934L1051.71 91.0654L1051.46 63.043L1068.66 50.2981L1068.96 78.2934Z" fill="#4DFF49"/>
<path opacity="0.7" d="M1068.65 50.2979L1051.46 63.0428L1023.76 55.4425L1040.96 42.7323L1068.65 50.2979Z" fill="#D0FF49"/>
<path opacity="0.7" d="M1051.71 59.3884L1023.99 51.8959L1023.76 23.7657L1051.46 31.3661L1051.71 59.3884Z" fill="#1042F3"/>
<path opacity="0.7" d="M1068.96 46.6167L1051.71 59.3886L1051.46 31.3662L1068.66 18.6213L1068.96 46.6167Z" fill="#4DFF49"/>
<path opacity="0.7" d="M1068.65 18.6212L1051.46 31.3661L1023.76 23.7657L1040.96 11.0556L1068.65 18.6212Z" fill="#D0FF49"/>
<path opacity="0.7" d="M1051.71 27.7117L1023.99 20.2192L1023.76 -7.91104L1051.46 -0.310691L1051.71 27.7117Z" fill="#1042F3"/>
<path opacity="0.7" d="M1068.96 14.9399L1051.71 27.7119L1051.46 -0.31052L1068.66 -13.0555L1068.96 14.9399Z" fill="#4DFF49"/>
<path opacity="0.7" d="M1068.65 -13.0556L1051.46 -0.310667L1023.76 -7.91101L1040.96 -20.6212L1068.65 -13.0556Z" fill="#D0FF49"/>
<path opacity="0.7" d="M1051.71 -3.96508L1023.99 -11.4576L1023.76 -39.5878L1051.46 -31.9874L1051.71 -3.96508Z" fill="#1042F3"/>
<path opacity="0.7" d="M1068.96 -16.7368L1051.71 -3.96491L1051.46 -31.9873L1068.66 -44.7322L1068.96 -16.7368Z" fill="#4DFF49"/>
<path opacity="0.7" d="M1083.46 131.439L1055.74 123.947L1055.51 95.8165L1083.21 103.417L1083.46 131.439Z" fill="#1042F3"/>
<path opacity="0.7" d="M1100.71 118.667L1083.46 131.439L1083.21 103.417L1100.41 90.6716L1100.71 118.667Z" fill="#4DFF49"/>
<path opacity="0.7" d="M1100.41 90.6719L1083.21 103.417L1055.51 95.8165L1072.71 83.1064L1100.41 90.6719Z" fill="#D0FF49"/>
<path opacity="0.7" d="M1083.46 99.762L1055.74 92.2695L1055.51 64.1393L1083.21 71.7396L1083.46 99.762Z" fill="#1042F3"/>
<path opacity="0.7" d="M1100.71 86.9902L1083.46 99.7621L1083.21 71.7398L1100.41 58.9948L1100.71 86.9902Z" fill="#4DFF49"/>
<path opacity="0.7" d="M1100.41 58.9952L1083.21 71.7401L1055.51 64.1398L1072.71 51.4296L1100.41 58.9952Z" fill="#D0FF49"/>
<path opacity="0.7" d="M1083.46 68.0857L1055.74 60.5932L1055.51 32.463L1083.21 40.0633L1083.46 68.0857Z" fill="#1042F3"/>
<path opacity="0.7" d="M1100.71 55.3135L1083.46 68.0854L1083.21 40.063L1100.41 27.3181L1100.71 55.3135Z" fill="#4DFF49"/>
<path opacity="0.7" d="M1100.41 27.3184L1083.21 40.0634L1055.51 32.463L1072.71 19.7529L1100.41 27.3184Z" fill="#D0FF49"/>
<path opacity="0.7" d="M1083.46 36.4085L1055.74 28.9159L1055.51 0.785737L1083.21 8.38609L1083.46 36.4085Z" fill="#1042F3"/>
<path opacity="0.7" d="M1100.71 23.6367L1083.46 36.4086L1083.21 8.38626L1100.41 -4.35867L1100.71 23.6367Z" fill="#4DFF49"/>
<path opacity="0.7" d="M1100.41 -4.35833L1083.21 8.3866L1055.51 0.786252L1072.71 -11.9239L1100.41 -4.35833Z" fill="#D0FF49"/>
<path opacity="0.7" d="M1083.46 4.7317L1055.74 -2.76081L1055.51 -30.891L1083.21 -23.2907L1083.46 4.7317Z" fill="#D0FF49"/>
<path opacity="0.7" d="M1100.71 -8.04005L1083.46 4.73187L1083.21 -23.2905L1100.41 -36.0354L1100.71 -8.04005Z" fill="#4DFF49"/>
<path opacity="0.7" d="M1115.21 140.326L1087.5 132.834L1087.26 104.704L1114.96 112.304L1115.21 140.326Z" fill="#1042F3"/>
<path opacity="0.7" d="M1132.16 99.5591L1114.96 112.304L1087.26 104.704L1104.46 91.9936L1132.16 99.5591Z" fill="#D0FF49"/>
<path opacity="0.7" d="M1115.21 108.65L1087.5 101.157L1087.26 73.0269L1114.96 80.6273L1115.21 108.65Z" fill="#1042F3"/>
<path opacity="0.7" d="M1132.16 67.8824L1114.96 80.6273L1087.26 73.027L1104.46 60.3168L1132.16 67.8824Z" fill="#D0FF49"/>
<path opacity="0.7" d="M1115.21 76.9729L1087.5 69.4804L1087.26 41.3502L1114.96 48.9505L1115.21 76.9729Z" fill="#1042F3"/>
<path opacity="0.7" d="M1132.16 36.2056L1114.96 48.9506L1087.26 41.3502L1104.46 28.6401L1132.16 36.2056Z" fill="#D0FF49"/>
<path opacity="0.7" d="M1115.21 45.2957L1087.5 37.8032L1087.26 9.67294L1114.96 17.2733L1115.21 45.2957Z" fill="#1042F3"/>
<path opacity="0.7" d="M1132.16 4.52887L1114.96 17.2738L1087.26 9.67346L1104.46 -3.03669L1132.16 4.52887Z" fill="#D0FF49"/>
<path opacity="0.7" d="M1115.21 13.6189L1087.5 6.12639L1087.26 -22.0038L1114.96 -14.4035L1115.21 13.6189Z" fill="#D0FF49"/>
<path opacity="0.7" d="M999.288 129.534L971.572 122.042L971.335 93.9117L999.038 101.512L999.288 129.534Z" fill="#1042F3"/>
<path opacity="0.7" d="M1016.54 116.762L999.289 129.534L999.039 101.512L1016.23 88.7668L1016.54 116.762Z" fill="#4DFF49"/>
<path opacity="0.7" d="M1016.23 88.7672L999.038 101.512L971.335 93.9117L988.535 81.2016L1016.23 88.7672Z" fill="#D0FF49"/>
<path opacity="0.7" d="M999.288 97.8577L971.572 90.3652L971.335 62.235L999.038 69.8353L999.288 97.8577Z" fill="#1042F3"/>
<path opacity="0.7" d="M1016.54 85.0859L999.289 97.8578L999.039 69.8355L1016.23 57.0905L1016.54 85.0859Z" fill="#4DFF49"/>
<path opacity="0.7" d="M1016.23 57.0904L999.038 69.8353L971.335 62.235L988.535 49.5248L1016.23 57.0904Z" fill="#D0FF49"/>
<path opacity="0.7" d="M999.288 66.1809L971.572 58.6884L971.335 30.5582L999.038 38.1585L999.288 66.1809Z" fill="#1042F3"/>
<path opacity="0.7" d="M1016.54 53.4092L999.289 66.1811L999.039 38.1587L1016.23 25.4138L1016.54 53.4092Z" fill="#4DFF49"/>
<path opacity="0.7" d="M1016.23 25.4136L999.038 38.1586L971.335 30.5582L988.535 17.8481L1016.23 25.4136Z" fill="#D0FF49"/>
<path opacity="0.7" d="M999.288 34.5042L971.572 27.0116L971.335 -1.11856L999.038 6.48179L999.288 34.5042Z" fill="#1042F3"/>
<path opacity="0.7" d="M1016.54 21.7324L999.289 34.5043L999.039 6.48196L1016.23 -6.26297L1016.54 21.7324Z" fill="#4DFF49"/>
<path opacity="0.7" d="M1016.23 -6.26312L999.038 6.48181L971.335 -1.11853L988.535 -13.8287L1016.23 -6.26312Z" fill="#D0FF49"/>
<path opacity="0.7" d="M999.288 2.8274L971.572 -4.66511L971.335 -32.7953L999.038 -25.195L999.288 2.8274Z" fill="#1042F3"/>
<path opacity="0.7" d="M1016.54 -9.94435L999.289 2.82757L999.039 -25.1948L1016.23 -37.9397L1016.54 -9.94435Z" fill="#4DFF49"/>
<path opacity="0.7" d="M1031.04 138.295L1003.32 130.803L1003.09 102.672L1030.79 110.273L1031.04 138.295Z" fill="#1042F3"/>
<path opacity="0.7" d="M1048.29 125.523L1031.04 138.295L1030.79 110.272L1047.99 97.5276L1048.29 125.523Z" fill="#4DFF49"/>
<path opacity="0.7" d="M1047.99 97.5279L1030.79 110.273L1003.09 102.672L1020.29 89.9623L1047.99 97.5279Z" fill="#D0FF49"/>
<path opacity="0.7" d="M1031.04 106.618L1003.32 99.1259L1003.09 70.9957L1030.79 78.596L1031.04 106.618Z" fill="#1042F3"/>
<path opacity="0.7" d="M1048.29 93.8462L1031.04 106.618L1030.79 78.5957L1047.99 65.8508L1048.29 93.8462Z" fill="#4DFF49"/>
<path opacity="0.7" d="M1047.99 65.8507L1030.79 78.5956L1003.09 70.9952L1020.29 58.2851L1047.99 65.8507Z" fill="#D0FF49"/>
<path opacity="0.7" d="M1031.04 74.9412L1003.32 67.4487L1003.09 39.3185L1030.79 46.9188L1031.04 74.9412Z" fill="#1042F3"/>
<path opacity="0.7" d="M1048.29 62.1694L1031.04 74.9413L1030.79 46.919L1047.99 34.174L1048.29 62.1694Z" fill="#4DFF49"/>
<path opacity="0.7" d="M1047.99 34.1739L1030.79 46.9188L1003.09 39.3185L1020.29 26.6083L1047.99 34.1739Z" fill="#D0FF49"/>
<path opacity="0.7" d="M1031.04 43.2644L1003.32 35.7719L1003.09 7.64169L1030.79 15.242L1031.04 43.2644Z" fill="#1042F3"/>
<path opacity="0.7" d="M1048.29 30.4927L1031.04 43.2646L1030.79 15.2422L1047.99 2.49728L1048.29 30.4927Z" fill="#4DFF49"/>
<path opacity="0.7" d="M1047.99 2.49714L1030.79 15.2421L1003.09 7.64172L1020.29 -5.06843L1047.99 2.49714Z" fill="#D0FF49"/>
<path opacity="0.7" d="M1031.04 11.5877L1003.32 4.09514L1003.09 -24.0351L1030.79 -16.4347L1031.04 11.5877Z" fill="#AF49FF"/>
<path opacity="0.7" d="M1048.29 -1.18409L1031.04 11.5878L1030.79 -16.4345L1047.99 -29.1795L1048.29 -1.18409Z" fill="#4992FF"/>
<path opacity="0.7" d="M1062.79 146.992L1035.08 139.499L1034.84 111.369L1062.54 118.97L1062.79 146.992Z" fill="#1042F3"/>
<path opacity="0.7" d="M1080.05 134.22L1062.79 146.992L1062.54 118.969L1079.74 106.224L1080.05 134.22Z" fill="#4DFF49"/>
<path opacity="0.7" d="M1079.74 106.224L1062.54 118.969L1034.84 111.369L1052.04 98.6586L1079.74 106.224Z" fill="#D0FF49"/>
<path opacity="0.7" d="M1062.79 115.315L1035.08 107.823L1034.84 79.6925L1062.54 87.2928L1062.79 115.315Z" fill="#1042F3"/>
<path opacity="0.7" d="M1080.05 102.543L1062.79 115.315L1062.54 87.293L1079.74 74.5481L1080.05 102.543Z" fill="#4DFF49"/>
<path opacity="0.7" d="M1079.74 74.5479L1062.54 87.2928L1034.84 79.6925L1052.04 66.9823L1079.74 74.5479Z" fill="#D0FF49"/>
<path opacity="0.7" d="M1062.79 83.6379L1035.08 76.1454L1034.84 48.0152L1062.54 55.6156L1062.79 83.6379Z" fill="#1042F3"/>
<path opacity="0.7" d="M1080.05 70.8662L1062.79 83.6381L1062.54 55.6157L1079.74 42.8708L1080.05 70.8662Z" fill="#4DFF49"/>
<path opacity="0.7" d="M1079.74 42.8707L1062.54 55.6156L1034.84 48.0153L1052.04 35.3051L1079.74 42.8707Z" fill="#D0FF49"/>
<path opacity="0.7" d="M1062.79 51.9612L1035.08 44.4687L1034.84 16.3385L1062.54 23.9388L1062.79 51.9612Z" fill="#1042F3"/>
<path opacity="0.7" d="M1080.05 39.1894L1062.79 51.9614L1062.54 23.939L1079.74 11.1941L1080.05 39.1894Z" fill="#4DFF49"/>
<path opacity="0.7" d="M1079.74 11.1939L1062.54 23.9388L1034.84 16.3385L1052.04 3.62835L1079.74 11.1939Z" fill="#D0FF49"/>
<path opacity="0.7" d="M1062.79 20.2844L1035.08 12.7919L1034.84 -15.3383L1062.54 -7.73794L1062.79 20.2844Z" fill="#FF6A49"/>
<path opacity="0.7" d="M1080.05 7.51269L1062.79 20.2846L1062.54 -7.73777L1079.74 -20.4827L1080.05 7.51269Z" fill="#4992FF"/>
<path opacity="0.7" d="M1094.54 155.879L1066.83 148.387L1066.59 120.256L1094.29 127.857L1094.54 155.879Z" fill="#1042F3"/>
<path opacity="0.7" d="M1111.8 143.107L1094.55 155.879L1094.3 127.857L1111.49 115.112L1111.8 143.107Z" fill="#4DFF49"/>
<path opacity="0.7" d="M1111.49 115.112L1094.29 127.857L1066.59 120.256L1083.79 107.546L1111.49 115.112Z" fill="#D0FF49"/>
<path opacity="0.7" d="M1094.54 124.202L1066.83 116.71L1066.59 88.5797L1094.29 96.18L1094.54 124.202Z" fill="#1042F3"/>
<path opacity="0.7" d="M1111.8 111.43L1094.55 124.202L1094.3 96.1797L1111.49 83.4348L1111.8 111.43Z" fill="#4DFF49"/>
<path opacity="0.7" d="M1111.49 83.4346L1094.29 96.1796L1066.59 88.5792L1083.79 75.8691L1111.49 83.4346Z" fill="#D0FF49"/>
<path opacity="0.7" d="M1094.54 92.5256L1066.83 85.0331L1066.59 56.9029L1094.29 64.5033L1094.54 92.5256Z" fill="#1042F3"/>
<path opacity="0.7" d="M1111.8 79.7534L1094.55 92.5253L1094.3 64.503L1111.49 51.758L1111.8 79.7534Z" fill="#4DFF49"/>
<path opacity="0.7" d="M1111.49 51.7584L1094.29 64.5033L1066.59 56.903L1083.79 44.1928L1111.49 51.7584Z" fill="#D0FF49"/>
<path opacity="0.7" d="M1094.54 60.8484L1066.83 53.3559L1066.59 25.2257L1094.29 32.826L1094.54 60.8484Z" fill="#1042F3"/>
<path opacity="0.7" d="M1111.8 48.0767L1094.55 60.8486L1094.3 32.8262L1111.49 20.0813L1111.8 48.0767Z" fill="#4DFF49"/>
<path opacity="0.7" d="M1111.49 20.0811L1094.29 32.8261L1066.59 25.2257L1083.79 12.5156L1111.49 20.0811Z" fill="#D0FF49"/>
<path opacity="0.7" d="M1094.54 29.1716L1066.83 21.6791L1066.59 -6.45108L1094.29 1.14927L1094.54 29.1716Z" fill="#1042F3"/>
<path opacity="0.7" d="M1111.8 16.3999L1094.55 29.1718L1094.3 1.14944L1111.49 -11.5955L1111.8 16.3999Z" fill="#4DFF49"/>
<path opacity="0.7" d="M1126.3 164.576L1098.58 157.083L1098.34 128.953L1126.05 136.554L1126.3 164.576Z" fill="#FFC149"/>
<path opacity="0.7" d="M1143.24 123.809L1126.05 136.554L1098.34 128.953L1115.54 116.243L1143.24 123.809Z" fill="#00FDCE"/>
<path opacity="0.7" d="M1126.3 132.899L1098.58 125.406L1098.34 97.276L1126.05 104.876L1126.3 132.899Z" fill="#FF4975"/>
<path opacity="0.7" d="M1143.24 92.1319L1126.05 104.877L1098.34 97.2765L1115.54 84.5663L1143.24 92.1319Z" fill="#FF4975"/>
<path opacity="0.7" d="M1126.3 101.222L1098.58 93.7299L1098.34 65.5997L1126.05 73.2001L1126.3 101.222Z" fill="#1042F3"/>
<path opacity="0.7" d="M1143.24 60.4547L1126.05 73.1996L1098.34 65.5992L1115.54 52.8891L1143.24 60.4547Z" fill="#D0FF49"/>
<path opacity="0.7" d="M1126.3 69.5452L1098.58 62.0527L1098.34 33.9225L1126.05 41.5228L1126.3 69.5452Z" fill="#1042F3"/>
<path opacity="0.7" d="M1143.24 28.7784L1126.05 41.5233L1098.34 33.923L1115.54 21.2128L1143.24 28.7784Z" fill="#D0FF49"/>
<path opacity="0.7" d="M1126.3 37.8684L1098.58 30.3759L1098.34 2.2457L1126.05 9.84605L1126.3 37.8684Z" fill="#4992FF"/>
<path opacity="0.7" d="M978.62 145.023L950.904 137.531L950.667 109.4L978.37 117.001L978.62 145.023Z" fill="#1042F3"/>
<path opacity="0.7" d="M995.875 132.252L978.621 145.024L978.371 117.001L995.567 104.257L995.875 132.252Z" fill="#4DFF49"/>
<path opacity="0.7" d="M995.566 104.256L978.37 117.001L950.667 109.401L967.867 96.6908L995.566 104.256Z" fill="#D0FF49"/>
<path opacity="0.7" d="M978.62 113.347L950.904 105.855L950.667 77.7247L978.37 85.3251L978.62 113.347Z" fill="#1042F3"/>
<path opacity="0.7" d="M995.875 100.575L978.621 113.347L978.371 85.3242L995.567 72.5793L995.875 100.575Z" fill="#4DFF49"/>
<path opacity="0.7" d="M995.566 72.5797L978.37 85.3246L950.667 77.7242L967.867 65.0141L995.566 72.5797Z" fill="#D0FF49"/>
<path opacity="0.7" d="M978.62 81.6702L950.904 74.1777L950.667 46.0475L978.37 53.6478L978.62 81.6702Z" fill="#1042F3"/>
<path opacity="0.7" d="M995.875 68.8984L978.621 81.6703L978.371 53.648L995.567 40.903L995.875 68.8984Z" fill="#4DFF49"/>
<path opacity="0.7" d="M995.566 40.9034L978.37 53.6483L950.667 46.048L967.867 33.3378L995.566 40.9034Z" fill="#D0FF49"/>
<path opacity="0.7" d="M978.62 49.9934L950.904 42.5009L950.667 14.3707L978.37 21.971L978.62 49.9934Z" fill="#1042F3"/>
<path opacity="0.7" d="M995.875 37.2217L978.621 49.9936L978.371 21.9712L995.567 9.22629L995.875 37.2217Z" fill="#4DFF49"/>
<path opacity="0.7" d="M995.566 9.22614L978.37 21.9711L950.667 14.3707L967.867 1.66057L995.566 9.22614Z" fill="#D0FF49"/>
<path opacity="0.7" d="M978.62 18.3167L950.904 10.8241L950.667 -17.3061L978.37 -9.70571L978.62 18.3167Z" fill="#D0FF49"/>
<path opacity="0.7" d="M995.875 5.54491L978.621 18.3168L978.371 -9.70554L995.567 -22.4505L995.875 5.54491Z" fill="#4DFF49"/>
<path opacity="0.7" d="M1010.37 153.784L982.657 146.292L982.42 118.162L1010.12 125.762L1010.37 153.784Z" fill="#1042F3"/>
<path opacity="0.7" d="M1027.63 141.012L1010.37 153.784L1010.12 125.762L1027.32 113.017L1027.63 141.012Z" fill="#4DFF49"/>
<path opacity="0.7" d="M1027.32 113.017L1010.12 125.762L982.419 118.161L999.619 105.451L1027.32 113.017Z" fill="#D0FF49"/>
<path opacity="0.7" d="M1010.37 122.108L982.657 114.615L982.42 86.485L1010.12 94.0853L1010.37 122.108Z" fill="#1042F3"/>
<path opacity="0.7" d="M1027.63 109.335L1010.37 122.107L1010.12 94.085L1027.32 81.3401L1027.63 109.335Z" fill="#4DFF49"/>
<path opacity="0.7" d="M1027.32 81.3399L1010.12 94.0848L982.419 86.4845L999.619 73.7743L1027.32 81.3399Z" fill="#D0FF49"/>
<path opacity="0.7" d="M1010.37 90.4304L982.657 82.9379L982.42 54.8077L1010.12 62.4081L1010.37 90.4304Z" fill="#1042F3"/>
<path opacity="0.7" d="M1027.63 77.6587L1010.37 90.4306L1010.12 62.4082L1027.32 49.6633L1027.63 77.6587Z" fill="#4DFF49"/>
<path opacity="0.7" d="M1027.32 49.6636L1010.12 62.4086L982.419 54.8082L999.619 42.0981L1027.32 49.6636Z" fill="#D0FF49"/>
<path opacity="0.7" d="M1010.37 58.7537L982.657 51.2612L982.42 23.131L1010.12 30.7313L1010.37 58.7537Z" fill="#1042F3"/>
<path opacity="0.7" d="M1027.63 45.9819L1010.37 58.7538L1010.12 30.7315L1027.32 17.9865L1027.63 45.9819Z" fill="#4DFF49"/>
<path opacity="0.7" d="M1027.32 17.9864L1010.12 30.7313L982.419 23.131L999.619 10.4208L1027.32 17.9864Z" fill="#D0FF49"/>
<path opacity="0.7" d="M1010.37 27.0769L982.657 19.5844L982.42 -8.54581L1010.12 -0.945456L1010.37 27.0769Z" fill="#1042F3"/>
<path opacity="0.7" d="M1027.63 14.3052L1010.37 27.0771L1010.12 -0.945286L1027.32 -13.6902L1027.63 14.3052Z" fill="#4DFF49"/>
<path opacity="0.7" d="M1042.12 162.481L1014.41 154.989L1014.17 126.858L1041.87 134.459L1042.12 162.481Z" fill="#1042F3"/>
<path opacity="0.7" d="M1059.38 149.709L1042.12 162.481L1041.87 134.459L1059.07 121.714L1059.38 149.709Z" fill="#4DFF49"/>
<path opacity="0.7" d="M1059.07 121.713L1041.87 134.458L1014.17 126.858L1031.37 114.148L1059.07 121.713Z" fill="#D0FF49"/>
<path opacity="0.7" d="M1042.12 130.804L1014.41 123.312L1014.17 95.1817L1041.87 102.782L1042.12 130.804Z" fill="#1042F3"/>
<path opacity="0.7" d="M1059.38 118.033L1042.12 130.805L1041.87 102.782L1059.07 90.0373L1059.38 118.033Z" fill="#4DFF49"/>
<path opacity="0.7" d="M1059.07 90.0372L1041.87 102.782L1014.17 95.1818L1031.37 82.4716L1059.07 90.0372Z" fill="#D0FF49"/>
<path opacity="0.7" d="M1042.12 99.1272L1014.41 91.6347L1014.17 63.5045L1041.87 71.1048L1042.12 99.1272Z" fill="#1042F3"/>
<path opacity="0.7" d="M1059.38 86.3555L1042.12 99.1274L1041.87 71.105L1059.07 58.3601L1059.38 86.3555Z" fill="#4DFF49"/>
<path opacity="0.7" d="M1059.07 58.3599L1041.87 71.1049L1014.17 63.5045L1031.37 50.7944L1059.07 58.3599Z" fill="#D0FF49"/>
<path opacity="0.7" d="M1042.12 67.4509L1014.41 59.9584L1014.17 31.8282L1041.87 39.4286L1042.12 67.4509Z" fill="#1042F3"/>
<path opacity="0.7" d="M1059.38 54.6787L1042.12 67.4506L1041.87 39.4282L1059.07 26.6833L1059.38 54.6787Z" fill="#4DFF49"/>
<path opacity="0.7" d="M1059.07 26.6837L1041.87 39.4286L1014.17 31.8282L1031.37 19.1181L1059.07 26.6837Z" fill="#D0FF49"/>
<path opacity="0.7" d="M1042.12 35.7737L1014.41 28.2812L1014.17 0.150971L1041.87 7.75132L1042.12 35.7737Z" fill="#AF49FF"/>
<path opacity="0.7" d="M1059.38 23.0019L1042.12 35.7739L1041.87 7.75149L1059.07 -4.99344L1059.38 23.0019Z" fill="#4DFF49"/>
<path opacity="0.7" d="M1073.88 171.368L1046.16 163.876L1045.92 135.746L1073.63 143.346L1073.88 171.368Z" fill="#1042F3"/>
<path opacity="0.7" d="M1091.13 158.596L1073.88 171.368L1073.63 143.346L1090.82 130.601L1091.13 158.596Z" fill="#4DFF49"/>
<path opacity="0.7" d="M1090.82 130.601L1073.63 143.346L1045.92 135.745L1063.12 123.035L1090.82 130.601Z" fill="#D0FF49"/>
<path opacity="0.7" d="M1073.88 139.692L1046.16 132.199L1045.92 104.069L1073.63 111.669L1073.88 139.692Z" fill="#1042F3"/>
<path opacity="0.7" d="M1091.13 126.92L1073.88 139.692L1073.63 111.669L1090.82 98.9245L1091.13 126.92Z" fill="#4DFF49"/>
<path opacity="0.7" d="M1090.82 98.9244L1073.63 111.669L1045.92 104.069L1063.12 91.3588L1090.82 98.9244Z" fill="#D0FF49"/>
<path opacity="0.7" d="M1073.88 108.015L1046.16 100.522L1045.92 72.3922L1073.63 79.9925L1073.88 108.015Z" fill="#1042F3"/>
<path opacity="0.7" d="M1091.13 95.2427L1073.88 108.015L1073.63 79.9922L1090.82 67.2473L1091.13 95.2427Z" fill="#4DFF49"/>
<path opacity="0.7" d="M1090.82 67.2476L1073.63 79.9926L1045.92 72.3922L1063.12 59.6821L1090.82 67.2476Z" fill="#D0FF49"/>
<path opacity="0.7" d="M1073.88 76.3377L1046.16 68.8451L1045.92 40.7149L1073.63 48.3153L1073.88 76.3377Z" fill="#1042F3"/>
<path opacity="0.7" d="M1091.13 63.5664L1073.88 76.3383L1073.63 48.3159L1090.82 35.571L1091.13 63.5664Z" fill="#4DFF49"/>
<path opacity="0.7" d="M1090.82 35.5709L1073.63 48.3158L1045.92 40.7155L1063.12 28.0053L1090.82 35.5709Z" fill="#D0FF49"/>
<path opacity="0.7" d="M1073.88 44.6609L1046.16 37.1684L1045.92 9.03818L1073.63 16.6385L1073.88 44.6609Z" fill="#FF6A49"/>
<path opacity="0.7" d="M1091.13 31.8892L1073.88 44.6611L1073.63 16.6387L1090.82 3.89377L1091.13 31.8892Z" fill="#4DFF49"/>
<path opacity="0.7" d="M1105.63 180.065L1077.91 172.573L1077.68 144.442L1105.38 152.043L1105.63 180.065Z" fill="#1042F3"/>
<path opacity="0.7" d="M1122.88 167.293L1105.63 180.065L1105.38 152.043L1122.57 139.298L1122.88 167.293Z" fill="#1042F3"/>
<path opacity="0.7" d="M1122.57 139.297L1105.38 152.042L1077.68 144.442L1094.88 131.732L1122.57 139.297Z" fill="#4992FF"/>
<path opacity="0.7" d="M1105.63 148.388L1077.91 140.896L1077.68 112.766L1105.38 120.366L1105.63 148.388Z" fill="#FF4975"/>
<path opacity="0.7" d="M1122.57 107.621L1105.38 120.366L1077.68 112.766L1094.88 100.056L1122.57 107.621Z" fill="#D0FF49"/>
<path opacity="0.7" d="M1105.63 116.711L1077.91 109.219L1077.68 81.0885L1105.38 88.6888L1105.63 116.711Z" fill="#1042F3"/>
<path opacity="0.7" d="M1122.57 75.9444L1105.38 88.6893L1077.68 81.089L1094.88 68.3788L1122.57 75.9444Z" fill="#D0FF49"/>
<path opacity="0.7" d="M1105.63 85.0344L1077.91 77.5419L1077.68 49.4117L1105.38 57.0121L1105.63 85.0344Z" fill="#FF4975"/>
<path opacity="0.7" d="M1122.57 44.2676L1105.38 57.0126L1077.68 49.4122L1094.88 36.7021L1122.57 44.2676Z" fill="#00FDCE"/>
<path opacity="0.7" d="M1105.63 53.3577L1077.91 45.8652L1077.68 17.735L1105.38 25.3353L1105.63 53.3577Z" fill="#1042F3"/>
<path opacity="0.7" d="M975.207 147.741L957.953 160.513L957.703 132.491L974.899 119.746L975.207 147.741Z" fill="#4DFF49"/>
<path opacity="0.7" d="M974.898 119.746L957.702 132.491L929.999 124.891L947.199 112.181L974.898 119.746Z" fill="#D0FF49"/>
<path opacity="0.7" d="M957.952 128.836L930.236 121.344L929.999 93.2135L957.702 100.814L957.952 128.836Z" fill="#FF4975"/>
<path opacity="0.7" d="M975.207 116.064L957.953 128.836L957.703 100.814L974.899 88.0691L975.207 116.064Z" fill="#FF6A49"/>
<path opacity="0.7" d="M974.898 88.0689L957.702 100.814L929.999 93.2135L947.199 80.5033L974.898 88.0689Z" fill="#D0FF49"/>
<path opacity="0.7" d="M975.207 84.3877L957.953 97.1596L957.703 69.1372L974.899 56.3923L975.207 84.3877Z" fill="#4DFF49"/>
<path opacity="0.7" d="M974.898 56.3922L957.702 69.1371L929.999 61.5367L947.199 48.8266L974.898 56.3922Z" fill="#D0FF49"/>
<path opacity="0.7" d="M957.952 65.4827L930.236 57.9902L929.999 29.86L957.702 37.4603L957.952 65.4827Z" fill="#AF49FF"/>
<path opacity="0.7" d="M975.207 52.7104L957.953 65.4824L957.703 37.46L974.899 24.7151L975.207 52.7104Z" fill="#FF49CC"/>
<path opacity="0.7" d="M974.898 24.7154L957.702 37.4603L929.999 29.86L947.199 17.1498L974.898 24.7154Z" fill="#D0FF49"/>
<path opacity="0.7" d="M957.952 33.8059L930.236 26.3134L929.999 -1.8168L957.702 5.78355L957.952 33.8059Z" fill="#1042F3"/>
<path opacity="0.7" d="M975.207 21.0337L957.953 33.8056L957.703 5.78323L974.899 -6.9617L975.207 21.0337Z" fill="#1042F3"/>
<path opacity="0.7" d="M974.898 -6.96136L957.702 5.78357L929.999 -1.81678L947.199 -14.5269L974.898 -6.96136Z" fill="#D0FF49"/>
<path opacity="0.7" d="M989.704 169.273L961.988 161.781L961.751 133.65L989.454 141.251L989.704 169.273Z" fill="#4DFF49"/>
<path opacity="0.7" d="M1006.96 156.501L989.704 169.273L989.454 141.251L1006.65 128.506L1006.96 156.501Z" fill="#1042F3"/>
<path opacity="0.7" d="M1006.65 128.506L989.454 141.251L961.751 133.651L978.951 120.941L1006.65 128.506Z" fill="#D0FF49"/>
<path opacity="0.7" d="M1006.96 124.825L989.704 137.597L989.454 109.574L1006.65 96.8293L1006.96 124.825Z" fill="#1042F3"/>
<path opacity="0.7" d="M1006.65 96.8297L989.454 109.575L961.751 101.974L978.951 89.2641L1006.65 96.8297Z" fill="#D0FF49"/>
<path opacity="0.7" d="M989.704 105.92L961.988 98.4277L961.751 70.2975L989.454 77.8978L989.704 105.92Z" fill="#1042F3"/>
<path opacity="0.7" d="M1006.96 93.1479L989.704 105.92L989.454 77.8975L1006.65 65.1526L1006.96 93.1479Z" fill="#FF49CC"/>
<path opacity="0.7" d="M1006.65 65.1524L989.454 77.8973L961.751 70.297L978.951 57.5868L1006.65 65.1524Z" fill="#D0FF49"/>
<path opacity="0.7" d="M1006.96 61.4712L989.704 74.2431L989.454 46.2207L1006.65 33.4758L1006.96 61.4712Z" fill="#FF6A49"/>
<path opacity="0.7" d="M1006.65 33.4757L989.454 46.2206L961.751 38.6202L978.951 25.9101L1006.65 33.4757Z" fill="#D0FF49"/>
<path opacity="0.7" d="M989.704 42.5662L961.988 35.0737L961.751 6.94345L989.454 14.5438L989.704 42.5662Z" fill="#00FDCE"/>
<path opacity="0.7" d="M1006.96 29.7944L989.704 42.5663L989.454 14.544L1006.65 1.79904L1006.96 29.7944Z" fill="#4DFF49"/>
<path opacity="0.7" d="M1006.65 1.79889L989.454 14.5438L961.751 6.94348L978.951 -5.76667L1006.65 1.79889Z" fill="#FF4975"/>
<path opacity="0.7" d="M1038.71 165.199L1021.46 177.971L1021.21 149.948L1038.4 137.203L1038.71 165.199Z" fill="#FFC149"/>
<path opacity="0.7" d="M1038.4 137.203L1021.21 149.948L993.503 142.347L1010.7 129.637L1038.4 137.203Z" fill="#D0FF49"/>
<path opacity="0.7" d="M1021.46 146.294L993.74 138.801L993.503 110.671L1021.21 118.271L1021.46 146.294Z" fill="#00FDCE"/>
<path opacity="0.7" d="M1038.71 133.521L1021.46 146.293L1021.21 118.271L1038.4 105.526L1038.71 133.521Z" fill="#FF49CC"/>
<path opacity="0.7" d="M1038.4 105.526L1021.21 118.271L993.503 110.671L1010.7 97.9604L1038.4 105.526Z" fill="#D0FF49"/>
<path opacity="0.7" d="M1038.71 101.845L1021.46 114.617L1021.21 86.5943L1038.4 73.8493L1038.71 101.845Z" fill="#4DFF49"/>
<path opacity="0.7" d="M1038.4 73.8492L1021.21 86.5941L993.503 78.9938L1010.7 66.2836L1038.4 73.8492Z" fill="#D0FF49"/>
<path opacity="0.7" d="M1021.46 82.9402L993.74 75.4477L993.503 47.3175L1021.21 54.9178L1021.46 82.9402Z" fill="#00FDCE"/>
<path opacity="0.7" d="M1038.71 70.168L1021.46 82.9399L1021.21 54.9175L1038.4 42.1726L1038.71 70.168Z" fill="#1042F3"/>
<path opacity="0.7" d="M1038.4 42.1724L1021.21 54.9174L993.503 47.317L1010.7 34.6069L1038.4 42.1724Z" fill="#D0FF49"/>
<path opacity="0.7" d="M1021.46 51.2629L993.74 43.7704L993.503 15.6402L1021.21 23.2406L1021.46 51.2629Z" fill="#D0FF49"/>
<path opacity="0.7" d="M1038.71 38.4912L1021.46 51.2631L1021.21 23.2407L1038.4 10.4958L1038.71 38.4912Z" fill="#4DFF49"/>
<path opacity="0.7" d="M1038.4 10.4957L1021.21 23.2406L993.503 15.6403L1010.7 2.9301L1038.4 10.4957Z" fill="#D0FF49"/>
<path opacity="0.7" d="M1053.21 186.857L1025.49 179.365L1025.26 151.234L1052.96 158.835L1053.21 186.857Z" fill="#1042F3"/>
<path opacity="0.7" d="M1070.46 174.085L1053.21 186.857L1052.96 158.835L1070.15 146.09L1070.46 174.085Z" fill="#4DFF49"/>
<path opacity="0.7" d="M1070.15 146.09L1052.96 158.835L1025.26 151.235L1042.45 138.525L1070.15 146.09Z" fill="#D0FF49"/>
<path opacity="0.7" d="M1070.46 142.409L1053.21 155.181L1052.96 127.158L1070.15 114.413L1070.46 142.409Z" fill="#4DFF49"/>
<path opacity="0.7" d="M1070.15 114.413L1052.96 127.158L1025.26 119.558L1042.45 106.848L1070.15 114.413Z" fill="#D0FF49"/>
<path opacity="0.7" d="M1053.21 123.504L1025.49 116.011L1025.26 87.881L1052.96 95.4813L1053.21 123.504Z" fill="#AF49FF"/>
<path opacity="0.7" d="M1070.46 110.732L1053.21 123.504L1052.96 95.4815L1070.15 82.7365L1070.46 110.732Z" fill="#FFC149"/>
<path opacity="0.7" d="M1070.15 82.7364L1052.96 95.4813L1025.26 87.881L1042.45 75.1708L1070.15 82.7364Z" fill="#D0FF49"/>
<path opacity="0.7" d="M1053.21 91.8274L1025.49 84.3349L1025.26 56.2047L1052.96 63.805L1053.21 91.8274Z" fill="#FF4975"/>
<path opacity="0.7" d="M1070.46 79.0552L1053.21 91.8271L1052.96 63.8047L1070.15 51.0598L1070.46 79.0552Z" fill="#4DFF49"/>
<path opacity="0.7" d="M1070.15 51.0596L1052.96 63.8046L1025.26 56.2042L1042.45 43.4941L1070.15 51.0596Z" fill="#D0FF49"/>
<path opacity="0.7" d="M1070.46 47.3784L1053.21 60.1503L1052.96 32.128L1070.15 19.383L1070.46 47.3784Z" fill="#FFC149"/>
<path opacity="0.7" d="M1070.15 19.3834L1052.96 32.1283L1025.26 24.528L1042.45 11.8178L1070.15 19.3834Z" fill="#4DFF49"/>
<path opacity="0.7" d="M1084.96 195.554L1057.24 188.062L1057.01 159.932L1084.71 167.532L1084.96 195.554Z" fill="#00FDCE"/>
<path opacity="0.7" d="M1102.21 182.783L1084.96 195.555L1084.71 167.532L1101.91 154.787L1102.21 182.783Z" fill="#4DFF49"/>
<path opacity="0.7" d="M1101.91 154.787L1084.71 167.532L1057.01 159.931L1074.21 147.221L1101.91 154.787Z" fill="#0019FD"/>
<path opacity="0.7" d="M1084.96 163.878L1057.24 156.385L1057.01 128.255L1084.71 135.855L1084.96 163.878Z" fill="#FF6A49"/>
<path opacity="0.7" d="M1102.21 151.105L1084.96 163.877L1084.71 135.855L1101.91 123.11L1102.21 151.105Z" fill="#4DFF49"/>
<path opacity="0.7" d="M1101.91 123.11L1084.71 135.855L1057.01 128.255L1074.21 115.544L1101.91 123.11Z" fill="#D0FF49"/>
<path opacity="0.7" d="M1084.96 132.201L1057.24 124.708L1057.01 96.5782L1084.71 104.179L1084.96 132.201Z" fill="#1042F3"/>
<path opacity="0.7" d="M1102.21 119.429L1084.96 132.201L1084.71 104.179L1101.91 91.4338L1102.21 119.429Z" fill="#FFC149"/>
<path opacity="0.7" d="M1101.91 91.4337L1084.71 104.179L1057.01 96.5782L1074.21 83.8681L1101.91 91.4337Z" fill="#FF6A49"/>
<path opacity="0.7" d="M1084.96 100.524L1057.24 93.0317L1057.01 64.9015L1084.71 72.5018L1084.96 100.524Z" fill="#1042F3"/>
<path opacity="0.7" d="M1102.21 87.7519L1084.96 100.524L1084.71 72.5015L1101.91 59.7566L1102.21 87.7519Z" fill="#E5E5E5"/>
<path opacity="0.7" d="M1101.91 59.7569L1084.71 72.5018L1057.01 64.9015L1074.21 52.1913L1101.91 59.7569Z" fill="#FF4975"/>
<path opacity="0.7" d="M1084.96 68.8469L1057.24 61.3544L1057.01 33.2242L1084.71 40.8246L1084.96 68.8469Z" fill="#FF4975"/>
<path opacity="0.7" d="M1102.21 56.0752L1084.96 68.8471L1084.71 40.8247L1101.91 28.0798L1102.21 56.0752Z" fill="#FF6A49"/>
<path opacity="0.7" d="M1101.91 28.0801L1084.71 40.8251L1057.01 33.2247L1074.21 20.5146L1101.91 28.0801Z" fill="#4DFF49"/>
</g>
</g>
<defs>
<filter id="filter0_f_276_1254" x="-46.6191" y="-50.187" width="319.562" height="365.331" filterUnits="userSpaceOnUse" color-interpolation-filters="sRGB">
<feFlood flood-opacity="0" result="BackgroundImageFix"/>
<feBlend mode="normal" in="SourceGraphic" in2="BackgroundImageFix" result="shape"/>
<feGaussianBlur stdDeviation="2" result="effect1_foregroundBlur_276_1254"/>
</filter>
<filter id="filter1_d_276_1254" x="90.4429" y="-34.8452" width="33.6899" height="43.6973" filterUnits="userSpaceOnUse" color-interpolation-filters="sRGB">
<feFlood flood-opacity="0" result="BackgroundImageFix"/>
<feColorMatrix in="SourceAlpha" type="matrix" values="0 0 0 0 0 0 0 0 0 0 0 0 0 0 0 0 0 0 127 0" result="hardAlpha"/>
<feOffset dx="-1.22778" dy="1.22778"/>
<feGaussianBlur stdDeviation="0.613889"/>
<feComposite in2="hardAlpha" operator="out"/>
<feColorMatrix type="matrix" values="0 0 0 0 0 0 0 0 0 0 0 0 0 0 0 0 0 0 0.54 0"/>
<feBlend mode="normal" in2="BackgroundImageFix" result="effect1_dropShadow_276_1254"/>
<feBlend mode="normal" in="SourceGraphic" in2="effect1_dropShadow_276_1254" result="shape"/>
</filter>
<filter id="filter2_d_276_1254" x="97.8628" y="-40.5161" width="33.6899" height="43.6973" filterUnits="userSpaceOnUse" color-interpolation-filters="sRGB">
<feFlood flood-opacity="0" result="BackgroundImageFix"/>
<feColorMatrix in="SourceAlpha" type="matrix" values="0 0 0 0 0 0 0 0 0 0 0 0 0 0 0 0 0 0 127 0" result="hardAlpha"/>
<feOffset dx="-1.22778" dy="1.22778"/>
<feGaussianBlur stdDeviation="0.613889"/>
<feComposite in2="hardAlpha" operator="out"/>
<feColorMatrix type="matrix" values="0 0 0 0 0 0 0 0 0 0 0 0 0 0 0 0 0 0 0.54 0"/>
<feBlend mode="normal" in2="BackgroundImageFix" result="effect1_dropShadow_276_1254"/>
<feBlend mode="normal" in="SourceGraphic" in2="effect1_dropShadow_276_1254" result="shape"/>
</filter>
<filter id="filter4_d_276_1254" x="1.60035" y="242.103" width="54.8462" height="41.8442" filterUnits="userSpaceOnUse" color-interpolation-filters="sRGB">
<feFlood flood-opacity="0" result="BackgroundImageFix"/>
<feColorMatrix in="SourceAlpha" type="matrix" values="0 0 0 0 0 0 0 0 0 0 0 0 0 0 0 0 0 0 127 0" result="hardAlpha"/>
<feOffset dy="-1.22778"/>
<feGaussianBlur stdDeviation="0.613889"/>
<feComposite in2="hardAlpha" operator="out"/>
<feColorMatrix type="matrix" values="0 0 0 0 0 0 0 0 0 0 0 0 0 0 0 0 0 0 0.44 0"/>
<feBlend mode="normal" in2="BackgroundImageFix" result="effect1_dropShadow_276_1254"/>
<feBlend mode="normal" in="SourceGraphic" in2="effect1_dropShadow_276_1254" result="shape"/>
</filter>
<filter id="filter5_d_276_1254" x="1.1316" y="255.701" width="54.8462" height="41.8442" filterUnits="userSpaceOnUse" color-interpolation-filters="sRGB">
<feFlood flood-opacity="0" result="BackgroundImageFix"/>
<feColorMatrix in="SourceAlpha" type="matrix" values="0 0 0 0 0 0 0 0 0 0 0 0 0 0 0 0 0 0 127 0" result="hardAlpha"/>
<feOffset dy="-1.22778"/>
<feGaussianBlur stdDeviation="0.613889"/>
<feComposite in2="hardAlpha" operator="out"/>
<feColorMatrix type="matrix" values="0 0 0 0 0 0 0 0 0 0 0 0 0 0 0 0 0 0 0.44 0"/>
<feBlend mode="normal" in2="BackgroundImageFix" result="effect1_dropShadow_276_1254"/>
<feBlend mode="normal" in="SourceGraphic" in2="effect1_dropShadow_276_1254" result="shape"/>
</filter>
<filter id="filter6_d_276_1254" x="0.662847" y="269.299" width="54.8462" height="41.8442" filterUnits="userSpaceOnUse" color-interpolation-filters="sRGB">
<feFlood flood-opacity="0" result="BackgroundImageFix"/>
<feColorMatrix in="SourceAlpha" type="matrix" values="0 0 0 0 0 0 0 0 0 0 0 0 0 0 0 0 0 0 127 0" result="hardAlpha"/>
<feOffset dy="-1.22778"/>
<feGaussianBlur stdDeviation="0.613889"/>
<feComposite in2="hardAlpha" operator="out"/>
<feColorMatrix type="matrix" values="0 0 0 0 0 0 0 0 0 0 0 0 0 0 0 0 0 0 0.44 0"/>
<feBlend mode="normal" in2="BackgroundImageFix" result="effect1_dropShadow_276_1254"/>
<feBlend mode="normal" in="SourceGraphic" in2="effect1_dropShadow_276_1254" result="shape"/>
</filter>
<filter id="filter7_d_276_1254" x="231.033" y="156.895" width="33.6899" height="43.6973" filterUnits="userSpaceOnUse" color-interpolation-filters="sRGB">
<feFlood flood-opacity="0" result="BackgroundImageFix"/>
<feColorMatrix in="SourceAlpha" type="matrix" values="0 0 0 0 0 0 0 0 0 0 0 0 0 0 0 0 0 0 127 0" result="hardAlpha"/>
<feOffset dx="-1.22778" dy="1.22778"/>
<feGaussianBlur stdDeviation="0.613889"/>
<feComposite in2="hardAlpha" operator="out"/>
<feColorMatrix type="matrix" values="0 0 0 0 0 0 0 0 0 0 0 0 0 0 0 0 0 0 0.42 0"/>
<feBlend mode="normal" in2="BackgroundImageFix" result="effect1_dropShadow_276_1254"/>
<feBlend mode="normal" in="SourceGraphic" in2="effect1_dropShadow_276_1254" result="shape"/>
</filter>
<filter id="filter8_d_276_1254" x="235.253" y="153.144" width="33.6899" height="43.6973" filterUnits="userSpaceOnUse" color-interpolation-filters="sRGB">
<feFlood flood-opacity="0" result="BackgroundImageFix"/>
<feColorMatrix in="SourceAlpha" type="matrix" values="0 0 0 0 0 0 0 0 0 0 0 0 0 0 0 0 0 0 127 0" result="hardAlpha"/>
<feOffset dx="-1.22778" dy="1.22778"/>
<feGaussianBlur stdDeviation="0.613889"/>
<feComposite in2="hardAlpha" operator="out"/>
<feColorMatrix type="matrix" values="0 0 0 0 0 0 0 0 0 0 0 0 0 0 0 0 0 0 0.42 0"/>
<feBlend mode="normal" in2="BackgroundImageFix" result="effect1_dropShadow_276_1254"/>
<feBlend mode="normal" in="SourceGraphic" in2="effect1_dropShadow_276_1254" result="shape"/>
</filter>
<filter id="filter9_f_276_1254" x="925.999" y="-80.4839" width="262.889" height="280.039" filterUnits="userSpaceOnUse" color-interpolation-filters="sRGB">
<feFlood flood-opacity="0" result="BackgroundImageFix"/>
<feBlend mode="normal" in="SourceGraphic" in2="BackgroundImageFix" result="shape"/>
<feGaussianBlur stdDeviation="2" result="effect1_foregroundBlur_276_1254"/>
</filter>
<clipPath id="clip0_276_1254">
<rect width="1100" height="400" fill="white"/>
</clipPath>
</defs>
</svg>
