<svg width="34" height="24" viewBox="0 0 34 24" fill="none" xmlns="http://www.w3.org/2000/svg">
<path d="M32.4138 3.75541C32.0325 2.28693 30.9146 1.12935 29.4969 0.733922C26.9071 -5.10781e-08 16.5475 0 16.5475 0C16.5475 0 6.18829 0 3.59844 0.706125C2.20806 1.10112 1.06294 2.28719 0.681566 3.75541C0 6.43755 0 12.0001 0 12.0001C0 12.0001 0 17.5905 0.681566 20.2446C1.06331 21.7129 2.1808 22.8705 3.59865 23.2659C6.21554 24 16.5479 24 16.5479 24C16.5479 24 26.9071 24 29.4969 23.2939C30.9148 22.8987 32.0325 21.7411 32.4142 20.2728C33.0956 17.5905 33.0956 12.0282 33.0956 12.0282C33.0956 12.0282 33.1228 6.4375 32.4138 3.75541ZM13.2492 17.1388V6.86115L21.8637 11.9999L13.2492 17.1388Z" fill="#16EBC3"/>
</svg>
