<svg width="18" height="18" viewBox="0 0 18 18" fill="none" xmlns="http://www.w3.org/2000/svg">
<path d="M12.5005 11H11.7105L11.4305 10.73C12.0554 10.0039 12.5122 9.14875 12.768 8.22559C13.0239 7.30243 13.0725 6.33413 12.9105 5.38998C12.4405 2.60998 10.1205 0.389975 7.32046 0.0499748C6.33608 -0.0745594 5.33625 0.0277464 4.39749 0.349064C3.45872 0.670381 2.60591 1.20219 1.90429 1.90381C1.20268 2.60542 0.670869 3.45824 0.349552 4.397C0.0282347 5.33576 -0.0740712 6.33559 0.0504631 7.31997C0.390463 10.12 2.61046 12.44 5.39046 12.91C6.33462 13.072 7.30292 13.0234 8.22608 12.7675C9.14924 12.5117 10.0044 12.0549 10.7305 11.43L11.0005 11.71V12.5L15.2505 16.75C15.6605 17.16 16.3305 17.16 16.7405 16.75C17.1505 16.34 17.1505 15.67 16.7405 15.26L12.5005 11ZM6.50046 11C4.01046 11 2.00046 8.98997 2.00046 6.49997C2.00046 4.00997 4.01046 1.99997 6.50046 1.99997C8.99046 1.99997 11.0005 4.00997 11.0005 6.49997C11.0005 8.98997 8.99046 11 6.50046 11Z" fill="white"/>
</svg>
