<svg width="32" height="32" viewBox="0 0 32 32" fill="none" xmlns="http://www.w3.org/2000/svg">
<rect x="0.5" y="0.5" width="31" height="31" rx="1.5" fill="#16EBC3" fill-opacity="0.65" stroke="#16EBC3"/>
<g clip-path="url(#clip0_5_20)">
<path d="M20.7229 19.099C19.5147 19.099 18.45 19.6933 17.7813 20.5972L11.9997 17.6367C12.0957 17.3095 12.1631 16.9704 12.1631 16.6126C12.1631 16.1273 12.0636 15.6659 11.8917 15.2416L17.9425 11.6005C18.6159 12.3908 19.6056 12.9034 20.7229 12.9034C22.7458 12.9034 24.3914 11.2578 24.3914 9.23488C24.3914 7.21196 22.7458 5.56641 20.7229 5.56641C18.7 5.56641 17.0544 7.21196 17.0544 9.23488C17.0544 9.70107 17.1504 10.1433 17.3097 10.5538L11.2409 14.2056C10.5681 13.4388 9.59263 12.9441 8.49465 12.9441C6.47173 12.9441 4.82617 14.5897 4.82617 16.6126C4.82617 18.6355 6.47173 20.2811 8.49465 20.2811C9.72278 20.2811 10.8054 19.6693 11.4716 18.7401L17.2342 21.691C17.1281 22.0336 17.0544 22.3905 17.0544 22.7675C17.0544 24.7904 18.7 26.436 20.7229 26.436C22.7458 26.436 24.3914 24.7904 24.3914 22.7675C24.3914 20.7446 22.7458 19.099 20.7229 19.099Z" fill="white"/>
</g>
<defs>
<clipPath id="clip0_5_20">
<rect width="20.8696" height="20.8696" fill="white" transform="translate(4.17383 5.56641)"/>
</clipPath>
</defs>
</svg>
