<svg width="18" height="18" viewBox="0 0 18 18" fill="none" xmlns="http://www.w3.org/2000/svg">
<mask id="mask0_928_15290" style="mask-type:luminance" maskUnits="userSpaceOnUse" x="0" y="0" width="18" height="18">
<path d="M18 0H0V18H18V0Z" fill="white"/>
</mask>
<g mask="url(#mask0_928_15290)">
<mask id="mask1_928_15290" style="mask-type:luminance" maskUnits="userSpaceOnUse" x="0" y="0" width="18" height="18">
<path d="M18 0H0V18H18V0Z" fill="white"/>
</mask>
<g mask="url(#mask1_928_15290)">
<path d="M9 11.25C11.4853 11.25 13.5 9.23527 13.5 6.75C13.5 4.26472 11.4853 2.25 9 2.25C6.51472 2.25 4.5 4.26472 4.5 6.75C4.5 9.23527 6.51472 11.25 9 11.25Z" stroke="white" stroke-linecap="round" stroke-linejoin="round"/>
<path d="M9.00293 11.2522L11.5529 15.6697L12.7514 13.2449L15.4499 13.4189L12.8999 9.0022" stroke="white" stroke-linecap="round" stroke-linejoin="round"/>
<path d="M5.10176 9.0022L2.55176 13.4197L5.25026 13.2449L6.44876 15.6689L8.99873 11.2522" stroke="white" stroke-linecap="round" stroke-linejoin="round"/>
</g>
</g>
</svg>
