<svg width="24" height="24" viewBox="0 0 24 24" fill="none" xmlns="http://www.w3.org/2000/svg">
<g clip-path="url(#clip0_1_708)">
<path d="M0.0226192 7.05607C0.0788803 5.78082 0.285078 4.90418 0.580544 4.14447C0.88529 3.33811 1.35413 2.61618 1.96831 2.01602C2.56852 1.40652 3.29523 0.932901 4.09226 0.632936C4.85628 0.337566 5.72842 0.131276 7.00363 0.0751084C8.28839 0.0140652 8.69624 0 11.9547 0C15.2131 0 15.621 0.0140652 16.901 0.0703262C18.1762 0.126587 19.0529 0.332971 19.8123 0.628154C20.6189 0.932901 21.3408 1.40174 21.941 2.01602C22.5505 2.61614 23.0239 3.34284 23.3241 4.13987C23.6195 4.90418 23.8257 5.77613 23.8819 7.05128C23.9429 8.33605 23.957 8.7439 23.957 12.0023C23.957 15.2608 23.9429 15.6687 23.8867 16.9486C23.8304 18.2239 23.6241 19.1005 23.3286 19.8602C23.0239 20.6666 22.5505 21.3885 21.941 21.9887C21.3408 22.5982 20.6141 23.0718 19.8171 23.3718C19.0529 23.6671 18.1809 23.8734 16.9055 23.9296C15.6258 23.986 15.2177 23.9999 11.9592 23.9999C8.70079 23.9999 8.29294 23.986 7.01296 23.9296C5.73775 23.8734 4.86106 23.6672 4.10159 23.3718C3.30392 23.0633 2.5795 22.5917 1.97475 21.987C1.37001 21.3823 0.898287 20.6579 0.589827 19.8602C0.294643 19.096 0.0882111 18.2238 0.0319977 16.9486C-0.0242634 15.6687 -0.0383282 15.2608 -0.0383282 12.0023C-0.0383282 8.7439 -0.0335464 8.336 0.0226192 7.05607ZM2.18389 16.8549C2.23555 18.027 2.43242 18.6599 2.59651 19.0819C2.99981 20.1274 3.82961 20.9572 4.87518 21.3605C5.29714 21.5246 5.93462 21.7215 7.10217 21.7729C8.36805 21.8294 8.74767 21.8432 11.9499 21.8432C15.1521 21.8432 15.5365 21.8294 16.7979 21.7729C17.97 21.7215 18.6029 21.5246 19.0249 21.3605C19.5451 21.1682 20.0187 20.8635 20.4032 20.4649C20.8017 20.0758 21.1064 19.607 21.2987 19.0866C21.4628 18.6647 21.6597 18.027 21.7111 16.8596C21.7676 15.5938 21.7815 15.2139 21.7815 12.0117C21.7815 8.80944 21.7676 8.42504 21.7111 7.16395C21.6597 5.99184 21.4628 5.35891 21.2987 4.93695C21.1064 4.41644 20.8017 3.94296 20.3984 3.55841C20.0094 3.1599 19.5406 2.85515 19.0201 2.66307C18.5981 2.49897 17.9604 2.30206 16.7931 2.25044C15.5272 2.19418 15.1474 2.18011 11.9454 2.18011C8.73834 2.18011 8.35872 2.19418 7.09739 2.25044C5.92529 2.30211 5.29235 2.49893 4.8704 2.66302C4.35012 2.85515 3.8765 3.1599 3.4921 3.55841C3.09358 3.9476 2.78883 4.41644 2.59651 4.93695C2.43242 5.35891 2.23555 5.99639 2.18393 7.16395C2.12767 8.42982 2.11361 8.80944 2.11361 12.0117C2.11361 15.2139 2.12763 15.589 2.18389 16.8549Z" fill="#16EBC3"/>
<path d="M11.9539 5.83686C15.3576 5.83686 18.1191 8.59824 18.1191 12.0021C18.1191 15.406 15.3576 18.1674 11.9539 18.1674C8.55008 18.1674 5.78861 15.406 5.78861 12.0021C5.78861 8.59824 8.55008 5.83686 11.9539 5.83686ZM11.9539 16.0013C14.162 16.0013 15.9532 14.2105 15.9532 12.0021C15.9532 9.79379 14.162 8.0029 11.9539 8.0029C9.74558 8.0029 7.95465 9.79379 7.95465 12.0021C7.95465 14.2105 9.74563 16.0013 11.9539 16.0013ZM4.10537 5.59306C4.10537 6.38793 4.74989 7.0324 5.5449 7.0324C6.33973 7.0324 6.9842 6.38793 6.9842 5.59306C6.9842 4.79809 6.33973 4.15381 5.54486 4.15381C4.74989 4.15381 4.10537 4.79804 4.10537 5.59306Z" fill="#16EBC3"/>
</g>
<defs>
<clipPath id="clip0_1_708">
<rect width="24" height="24" fill="white" transform="matrix(-1 0 0 1 24 0)"/>
</clipPath>
</defs>
</svg>
