<svg width="23" height="24" viewBox="0 0 23 24" fill="none" xmlns="http://www.w3.org/2000/svg">
<g clip-path="url(#clip0_1_2340)">
<g clip-path="url(#clip1_1_2340)">
<path d="M15 9C17.7614 9 20 7.65685 20 6C20 4.34315 17.7614 3 15 3C12.2386 3 10 4.34315 10 6C10 7.65685 12.2386 9 15 9Z" stroke="white" stroke-width="2" stroke-linecap="round" stroke-linejoin="round"/>
<path d="M10 6V10C10 11.657 12.239 13 15 13C17.761 13 20 11.657 20 10V6" stroke="white" stroke-width="2" stroke-linecap="round" stroke-linejoin="round"/>
<path d="M10 10V14C10 15.657 12.239 17 15 17C17.761 17 20 15.657 20 14V10" stroke="white" stroke-width="2" stroke-linecap="round" stroke-linejoin="round"/>
<path d="M10 14V18C10 19.657 12.239 21 15 21C17.761 21 20 19.657 20 18V14" stroke="white" stroke-width="2" stroke-linecap="round" stroke-linejoin="round"/>
<path d="M7 9H4.5C4.10218 9 3.72064 9.15804 3.43934 9.43934C3.15804 9.72064 3 10.1022 3 10.5C3 10.8978 3.15804 11.2794 3.43934 11.5607C3.72064 11.842 4.10218 12 4.5 12H5.5C5.89782 12 6.27936 12.158 6.56066 12.4393C6.84196 12.7206 7 13.1022 7 13.5C7 13.8978 6.84196 14.2794 6.56066 14.5607C6.27936 14.842 5.89782 15 5.5 15H3" stroke="white" stroke-width="2" stroke-linecap="round" stroke-linejoin="round"/>
<path d="M5 15V16M5 8V9" stroke="white" stroke-width="2" stroke-linecap="round" stroke-linejoin="round"/>
</g>
</g>
<defs>
<clipPath id="clip0_1_2340">
<rect width="23" height="24" fill="white"/>
</clipPath>
<clipPath id="clip1_1_2340">
<rect width="24" height="24" fill="white" transform="translate(-1)"/>
</clipPath>
</defs>
</svg>
