<svg width="56" height="66" viewBox="0 0 56 66" fill="none" xmlns="http://www.w3.org/2000/svg">
<path d="M46.1067 33.2727L17.8672 16.7711V5.35889L46.1067 22.4945V33.2727Z" fill="#1042F3"/>
<path d="M26.6525 32.4582L35.7501 27.4382L35.6697 16.1606L26.418 21.6366L26.6525 32.4582Z" fill="#AF49FF"/>
<path d="M28.2417 55.0481L0 38.5465L9.06069 33.2725L37.3393 50.026L28.2417 55.0481Z" fill="#16EBC3"/>
<path d="M9.5235 43.9269L18.6233 38.907V27.814L9.5235 32.8361V43.9269Z" fill="#AF49FF"/>
<path d="M28.2422 66L37.3398 60.98V49.8892L28.2422 54.9091V66Z" fill="#AF49FF"/>
<path d="M28.2422 43.7531L37.3398 38.7332V27.6423L28.2422 32.6623V43.7531Z" fill="#AF49FF"/>
<path fill-rule="evenodd" clip-rule="evenodd" d="M28.2417 43.7531L9.52318 32.8159V43.9718L28.2417 54.9091V65.9999L0.00248066 49.4997L0 49.4983V38.4074V27.2515V16.1606L28.2417 32.6623V43.7531Z" fill="#1042F3"/>
<path fill-rule="evenodd" clip-rule="evenodd" d="M17.8672 5.35869L46.1066 22.4943L55.2064 17.1769L26.9278 0L17.8672 5.35869ZM28.2417 32.6624L0 16.1607L9.06069 10.8867L18.5643 16.5178L27.5848 11.2559L35.6684 16.1608L26.8035 21.3997L37.3393 27.6424L28.2417 32.6624Z" fill="#16EBC3"/>
<path d="M46.1077 33.2726L55.2074 27.9269V17.177L46.1077 22.4857V33.2726Z" fill="#AF49FF"/>
</svg>
