<svg xmlns="http://www.w3.org/2000/svg" width="32" height="32" viewBox="0 0 32 32">
  <g id="Group_59953" data-name="Group 59953" transform="translate(-13495 920)">
    <rect id="Rectangle_16284" data-name="Rectangle 16284" width="32" height="32" transform="translate(13495 -920)" fill="none"/>
    <g id="Iconly_Bold_Message" data-name="Iconly/Bold/Message" transform="translate(13496.511 -917.017)">
      <g id="Message">
        <path id="Path_17218" data-name="Path 17218" d="M22.013,0A7.451,7.451,0,0,1,29.47,7.441h0V19.082a7.452,7.452,0,0,1-7.457,7.441H7.456A7.451,7.451,0,0,1,0,19.082H0V7.441A7.442,7.442,0,0,1,7.456,0H22.013Zm1.667,7.662a1.12,1.12,0,0,0-.827.295h0l-6.644,5.3a2.308,2.308,0,0,1-2.947,0h0l-6.631-5.3A1.127,1.127,0,0,0,5.053,9.534h0l.193.192,6.7,5.231a4.64,4.64,0,0,0,5.76,0h0l6.647-5.319.118-.118a1.14,1.14,0,0,0-.016-1.474A1.239,1.239,0,0,0,23.679,7.662Z" fill="#040403"/>
      </g>
    </g>
  </g>
</svg>
