<svg xmlns="http://www.w3.org/2000/svg" xmlns:xlink="http://www.w3.org/1999/xlink" width="633.337" height="234.952" viewBox="0 0 633.337 234.952">
  <defs>
    <clipPath id="clip-path">
      <path id="Path_2085" data-name="Path 2085" d="M97.086,112.321l-17.72,5.213L62.248,92.722l18.375-3.454Z" transform="translate(-62.248 -89.268)" fill="none"/>
    </clipPath>
    <linearGradient id="linear-gradient" x1="-1.575" y1="3.172" x2="-1.548" y2="3.172" gradientUnits="objectBoundingBox">
      <stop offset="0" stop-color="#0dffff"/>
      <stop offset="1" stop-color="#ff7bff"/>
    </linearGradient>
    <clipPath id="clip-path-2">
      <path id="Path_2086" data-name="Path 2086" d="M79.868,124.972,97.124,108.41,79.4,113.623,62.062,131.169Z" transform="translate(-62.062 -108.41)" fill="none"/>
    </clipPath>
    <linearGradient id="linear-gradient-2" x1="-1.732" y1="2.809" x2="-1.703" y2="2.809" gradientUnits="objectBoundingBox">
      <stop offset="0" stop-color="#37c6fe"/>
      <stop offset="1" stop-color="#941dee"/>
    </linearGradient>
    <clipPath id="clip-path-3">
      <path id="Path_2087" data-name="Path 2087" d="M82.126,116.948,64.784,134.494,48.738,110.616l16.27-18.48Z" transform="translate(-48.738 -92.136)" fill="none"/>
    </clipPath>
    <linearGradient id="linear-gradient-3" x1="-1.192" y1="3.337" x2="-1.165" y2="3.337" xlink:href="#linear-gradient-2"/>
    <clipPath id="clip-path-4">
      <path id="Path_2088" data-name="Path 2088" d="M165.517,153.094l-35.348-20.809L141.062,65.59l37.572,15.339Z" transform="translate(-130.169 -65.59)" fill="none"/>
    </clipPath>
    <linearGradient id="linear-gradient-4" x1="-1.516" y1="1.628" x2="-1.503" y2="1.628" gradientUnits="objectBoundingBox">
      <stop offset="0" stop-color="#2df5ff"/>
      <stop offset="1" stop-color="#f241fc"/>
    </linearGradient>
    <clipPath id="clip-path-5">
      <path id="Path_2089" data-name="Path 2089" d="M159.52,150.492h54.561l12.8-69.719-54.244-2.446Z" transform="translate(-159.52 -78.327)" fill="none"/>
    </clipPath>
    <linearGradient id="linear-gradient-5" x1="-1.936" y1="1.603" x2="-1.923" y2="1.603" gradientUnits="objectBoundingBox">
      <stop offset="0" stop-color="#617eff"/>
      <stop offset="1" stop-color="#740890"/>
    </linearGradient>
    <clipPath id="clip-path-6">
      <path id="Path_2090" data-name="Path 2090" d="M139.214,65.59l37.572,15.339,54.244,2.446L197.35,68.7Z" transform="translate(-139.214 -65.59)" fill="none"/>
    </clipPath>
    <linearGradient id="linear-gradient-6" x1="-1.826" y1="8.769" x2="-1.813" y2="8.769" xlink:href="#linear-gradient"/>
    <clipPath id="clip-path-7">
      <path id="Path_2091" data-name="Path 2091" d="M208.9,159.435l72.49,38.258,19.1-69.805L235.078,89.294Z" transform="translate(-208.901 -89.294)" fill="none"/>
    </clipPath>
    <linearGradient id="linear-gradient-7" x1="-2.153" y1="1.086" x2="-2.143" y2="1.086" gradientUnits="objectBoundingBox">
      <stop offset="0" stop-color="#617eff"/>
      <stop offset="1" stop-color="#5808a2"/>
    </linearGradient>
    <clipPath id="clip-path-8">
      <path id="Path_2092" data-name="Path 2092" d="M180.088,170.269l66.591,34.541,40.6-19.016-72.491-38.257Z" transform="translate(-180.088 -147.536)" fill="none"/>
    </clipPath>
    <linearGradient id="linear-gradient-8" x1="-2.136" y1="0.736" x2="-2.124" y2="0.736" xlink:href="#linear-gradient-2"/>
    <clipPath id="clip-path-9">
      <path id="Path_2093" data-name="Path 2093" d="M240.965,89.294l-36.631,26.779-24.245,66.094,34.7-22.731Z" transform="translate(-180.088 -89.294)" fill="none"/>
    </clipPath>
    <linearGradient id="linear-gradient-9" x1="-1.727" y1="1.29" x2="-1.717" y2="1.29" xlink:href="#linear-gradient-4"/>
    <clipPath id="clip-path-10">
      <path id="Path_2094" data-name="Path 2094" d="M325.119,21.093,298.5,76.671l53,12.307,27.08-50.271Z" transform="translate(-298.499 -21.093)" fill="none"/>
    </clipPath>
    <linearGradient id="linear-gradient-10" x1="-3.683" y1="2.232" x2="-3.67" y2="2.232" xlink:href="#linear-gradient-5"/>
    <clipPath id="clip-path-11">
      <path id="Path_2095" data-name="Path 2095" d="M309.651,0l-24,51.037,15.474,29.944L327.743,25.4Z" transform="translate(-285.65)" fill="none"/>
    </clipPath>
    <linearGradient id="linear-gradient-11" x1="-7.28" y1="2.832" x2="-7.254" y2="2.832" xlink:href="#linear-gradient-2"/>
    <clipPath id="clip-path-12">
      <path id="Path_2096" data-name="Path 2096" d="M305.579,0l18.092,25.4,53.459,17.613L355.941,16.28Z" transform="translate(-305.579)" fill="none"/>
    </clipPath>
    <linearGradient id="linear-gradient-12" x1="-4.344" y1="3.484" x2="-4.329" y2="3.484" xlink:href="#linear-gradient"/>
    <clipPath id="clip-path-13">
      <path id="Path_2097" data-name="Path 2097" d="M97.156,108.42l32.124,39.168L156.891,112.4,128.879,74.739Z" transform="translate(-97.156 -74.739)" fill="none"/>
    </clipPath>
    <linearGradient id="linear-gradient-13" x1="-1.959" y1="1.99" x2="-1.939" y2="1.99" xlink:href="#linear-gradient-2"/>
    <clipPath id="clip-path-14">
      <path id="Path_2098" data-name="Path 2098" d="M76.219,107.339l25.215-4.633,32.124,39.168-27.683,1.1Z" transform="translate(-76.219 -102.706)" fill="none"/>
    </clipPath>
    <linearGradient id="linear-gradient-14" x1="-1.601" y1="2.763" x2="-1.58" y2="2.763" xlink:href="#linear-gradient-2"/>
    <clipPath id="clip-path-15">
      <path id="Path_2099" data-name="Path 2099" d="M133.156,74.739l-27.285,6.474L76.219,113.053l25.215-4.633Z" transform="translate(-76.219 -74.739)" fill="none"/>
    </clipPath>
    <linearGradient id="linear-gradient-15" x1="-1.612" y1="3.783" x2="-1.591" y2="3.783" xlink:href="#linear-gradient"/>
    <clipPath id="clip-path-16">
      <path id="Path_2100" data-name="Path 2100" d="M30.209,118.543l7.369,8.984,6.332-8.071-6.425-8.639Z" transform="translate(-30.209 -110.817)" fill="none"/>
    </clipPath>
    <linearGradient id="linear-gradient-16" x1="-2.655" y1="6.074" x2="-2.567" y2="6.074" xlink:href="#linear-gradient-2"/>
    <clipPath id="clip-path-17">
      <path id="Path_2101" data-name="Path 2101" d="M25.407,118.294l5.783-1.062,7.369,8.984-6.35.252Z" transform="translate(-25.407 -117.232)" fill="none"/>
    </clipPath>
    <linearGradient id="linear-gradient-17" x1="-2.326" y1="10.153" x2="-2.235" y2="10.153" xlink:href="#linear-gradient-2"/>
    <clipPath id="clip-path-18">
      <path id="Path_2102" data-name="Path 2102" d="M38.467,110.817,32.208,112.3l-6.8,7.3,5.783-1.062Z" transform="translate(-25.407 -110.817)" fill="none"/>
    </clipPath>
    <linearGradient id="linear-gradient-18" x1="-2.343" y1="11.549" x2="-2.251" y2="11.549" xlink:href="#linear-gradient"/>
    <clipPath id="clip-path-19">
      <path id="Path_2103" data-name="Path 2103" d="M293.956,87.116,192.554,108.3,211.44,25.863,305.871,1.617Z" transform="translate(-192.554 -1.617)" fill="none"/>
    </clipPath>
    <linearGradient id="linear-gradient-19" x1="-1.354" y1="1.658" x2="-1.346" y2="1.658" xlink:href="#linear-gradient"/>
    <clipPath id="clip-path-20">
      <path id="Path_2104" data-name="Path 2104" d="M321.081,151.941,276.753,87.116l11.915-85.5L332.311,68.23Z" transform="translate(-276.753 -1.617)" fill="none"/>
    </clipPath>
    <linearGradient id="linear-gradient-20" x1="-2.555" y1="1.492" x2="-2.545" y2="1.492" xlink:href="#linear-gradient-7"/>
    <clipPath id="clip-path-21">
      <path id="Path_2105" data-name="Path 2105" d="M338.284,137.436l-94.332,15.987-51.4-59.63,101.4-21.183Z" transform="translate(-192.554 -72.611)" fill="none"/>
    </clipPath>
    <linearGradient id="linear-gradient-21" x1="-1.344" y1="1.207" x2="-1.337" y2="1.207" xlink:href="#linear-gradient-2"/>
    <clipPath id="clip-path-22">
      <path id="Path_2106" data-name="Path 2106" d="M439.458,99.088,422.374,79.43l21.765-36.509,15.212,21.531Z" transform="translate(-422.374 -42.921)" fill="none"/>
    </clipPath>
    <linearGradient id="linear-gradient-22" x1="-8.348" y1="4.159" x2="-8.328" y2="4.159" xlink:href="#linear-gradient-2"/>
    <clipPath id="clip-path-23">
      <path id="Path_2107" data-name="Path 2107" d="M413.641,82.516,445,94.919,427.917,75.261,395.245,63.325Z" transform="translate(-395.245 -63.325)" fill="none"/>
    </clipPath>
    <linearGradient id="linear-gradient-23" x1="-8.132" y1="3.011" x2="-8.111" y2="3.011" xlink:href="#linear-gradient-5"/>
    <clipPath id="clip-path-24">
      <path id="Path_2108" data-name="Path 2108" d="M427.917,81.128,395.245,69.193,416.44,34.606,449.682,44.62Z" transform="translate(-395.245 -34.606)" fill="none"/>
    </clipPath>
    <linearGradient id="linear-gradient-24" x1="-6.783" y1="3.103" x2="-6.766" y2="3.103" xlink:href="#linear-gradient"/>
    <clipPath id="clip-path-25">
      <path id="Path_2109" data-name="Path 2109" d="M398.946,129.61l52.041,27.467L464.7,106.963,417.738,79.255Z" transform="translate(-398.946 -79.255)" fill="none"/>
    </clipPath>
    <linearGradient id="linear-gradient-25" x1="-4.748" y1="1.494" x2="-4.736" y2="1.494" xlink:href="#linear-gradient-4"/>
    <clipPath id="clip-path-26">
      <path id="Path_2110" data-name="Path 2110" d="M378.261,137.387l24.911-16.32,52.041,27.467-29.145,13.651Z" transform="translate(-378.261 -121.067)" fill="none"/>
    </clipPath>
    <linearGradient id="linear-gradient-26" x1="-5.92" y1="2.168" x2="-5.904" y2="2.168" xlink:href="#linear-gradient-2"/>
    <clipPath id="clip-path-27">
      <path id="Path_2111" data-name="Path 2111" d="M421.964,79.255l-26.3,19.226-17.406,47.449,24.911-16.32Z" transform="translate(-378.261 -79.255)" fill="none"/>
    </clipPath>
    <linearGradient id="linear-gradient-27" x1="-7.052" y1="1.873" x2="-7.033" y2="1.873" xlink:href="#linear-gradient-7"/>
    <clipPath id="clip-path-28">
      <path id="Path_2112" data-name="Path 2112" d="M330.163,95.335l68.894,44.409,25.091-67.882L362.332,27.732Z" transform="translate(-330.163 -27.732)" fill="none"/>
    </clipPath>
    <linearGradient id="linear-gradient-28" x1="-3.664" y1="1.688" x2="-3.653" y2="1.688" xlink:href="#linear-gradient-2"/>
    <clipPath id="clip-path-29">
      <path id="Path_2113" data-name="Path 2113" d="M299.819,103.5l36.544-19.633,68.894,44.409-42.1,15.418Z" transform="translate(-299.819 -83.866)" fill="none"/>
    </clipPath>
    <linearGradient id="linear-gradient-29" x1="-3.039" y1="1.74" x2="-3.029" y2="1.74" xlink:href="#linear-gradient-2"/>
    <clipPath id="clip-path-30">
      <path id="Path_2114" data-name="Path 2114" d="M368.532,27.732l-38.82,23.5-29.893,63.738,36.544-19.633Z" transform="translate(-299.819 -27.732)" fill="none"/>
    </clipPath>
    <linearGradient id="linear-gradient-30" x1="-3.069" y1="1.991" x2="-3.058" y2="1.991" xlink:href="#linear-gradient"/>
    <clipPath id="clip-path-31">
      <path id="Path_2117" data-name="Path 2117" d="M538.06,95.221l9.037,5.285,4.805-4.249L543.33,91.43Z" transform="translate(-538.06 -91.43)" fill="none"/>
    </clipPath>
    <linearGradient id="linear-gradient-31" x1="-42.14" y1="10.849" x2="-42.061" y2="10.849" xlink:href="#linear-gradient"/>
    <clipPath id="clip-path-32">
      <path id="Path_2118" data-name="Path 2118" d="M546.051,99.687l-2.871,8.072,4.687-4.572,2.989-7.75Z" transform="translate(-543.18 -95.438)" fill="none"/>
    </clipPath>
    <linearGradient id="linear-gradient-32" x1="-47.92" y1="8.38" x2="-47.831" y2="8.38" xlink:href="#linear-gradient-2"/>
    <clipPath id="clip-path-33">
      <path id="Path_2119" data-name="Path 2119" d="M547.5,99.863l-2.871,8.072-8.564-5.148,2.4-8.209Z" transform="translate(-536.069 -94.578)" fill="none"/>
    </clipPath>
    <linearGradient id="linear-gradient-33" x1="-40.935" y1="7.33" x2="-40.859" y2="7.33" xlink:href="#linear-gradient"/>
    <clipPath id="clip-path-34">
      <path id="Path_2120" data-name="Path 2120" d="M501.426,105.953l-17.72,5.213L466.588,86.353,484.963,82.9Z" transform="translate(-466.588 -82.9)" fill="none"/>
    </clipPath>
    <linearGradient id="linear-gradient-34" x1="-16.129" y1="4.78" x2="-16.095" y2="4.78" xlink:href="#linear-gradient"/>
    <clipPath id="clip-path-35">
      <path id="Path_2121" data-name="Path 2121" d="M484.209,118.6l17.255-16.56-17.72,5.213L466.4,124.8Z" transform="translate(-466.402 -102.042)" fill="none"/>
    </clipPath>
    <linearGradient id="linear-gradient-35" x1="-13.681" y1="2.96" x2="-13.652" y2="2.96" xlink:href="#linear-gradient-2"/>
    <clipPath id="clip-path-36">
      <path id="Path_2122" data-name="Path 2122" d="M486.466,110.581l-17.342,17.546-16.046-23.879,16.27-18.48Z" transform="translate(-453.078 -85.767)" fill="none"/>
    </clipPath>
    <linearGradient id="linear-gradient-36" x1="-11.553" y1="3.33" x2="-11.527" y2="3.33" xlink:href="#linear-gradient-4"/>
    <clipPath id="clip-path-37">
      <path id="Path_2123" data-name="Path 2123" d="M315.676,178.8l-4.14-9.543,12.683-11.284,3.2,10.031Z" transform="translate(-311.536 -157.975)" fill="none"/>
    </clipPath>
    <linearGradient id="linear-gradient-37" x1="-23.619" y1="2.146" x2="-23.543" y2="2.146" xlink:href="#linear-gradient-2"/>
    <clipPath id="clip-path-38">
      <path id="Path_2124" data-name="Path 2124" d="M307.093,169.829l10.451,8.5-4.14-9.543L302.4,160.305Z" transform="translate(-302.396 -160.305)" fill="none"/>
    </clipPath>
    <linearGradient id="linear-gradient-38" x1="-15.447" y1="1.898" x2="-15.395" y2="1.898" xlink:href="#linear-gradient-2"/>
    <clipPath id="clip-path-39">
      <path id="Path_2125" data-name="Path 2125" d="M313.4,170.585,302.4,162.107l12.235-10.621,11.455,7.815Z" transform="translate(-302.396 -151.486)" fill="none"/>
    </clipPath>
    <linearGradient id="linear-gradient-39" x1="-15.373" y1="2.75" x2="-15.322" y2="2.75" xlink:href="#linear-gradient"/>
    <clipPath id="clip-path-40">
      <path id="Path_2126" data-name="Path 2126" d="M36.941,101.465,32.8,91.922,45.484,80.638l3.2,10.031Z" transform="translate(-32.801 -80.638)" fill="none"/>
    </clipPath>
    <linearGradient id="linear-gradient-40" x1="-2.487" y1="6.618" x2="-2.411" y2="6.618" xlink:href="#linear-gradient-2"/>
    <clipPath id="clip-path-41">
      <path id="Path_2127" data-name="Path 2127" d="M28.358,92.491l10.451,8.5-4.14-9.543L23.661,82.969Z" transform="translate(-23.661 -82.969)" fill="none"/>
    </clipPath>
    <linearGradient id="linear-gradient-41" x1="-1.047" y1="5.856" x2="-0.996" y2="5.856" xlink:href="#linear-gradient-2"/>
    <clipPath id="clip-path-42">
      <path id="Path_2128" data-name="Path 2128" d="M34.668,93.248,23.661,84.771,35.9,74.149l11.455,7.815Z" transform="translate(-23.661 -74.149)" fill="none"/>
    </clipPath>
    <linearGradient id="linear-gradient-42" x1="-1.203" y1="7.626" x2="-1.152" y2="7.626" xlink:href="#linear-gradient"/>
    <clipPath id="clip-path-43">
      <path id="Path_2129" data-name="Path 2129" d="M508.8,107.562l-4.14-9.544,12.683-11.284,3.2,10.031Z" transform="translate(-504.656 -86.733)" fill="none"/>
    </clipPath>
    <linearGradient id="linear-gradient-43" x1="-26.024" y1="6.762" x2="-25.972" y2="6.762" xlink:href="#linear-gradient-2"/>
    <clipPath id="clip-path-44">
      <path id="Path_2130" data-name="Path 2130" d="M500.213,98.586l10.451,8.5-4.14-9.544-11.007-8.477Z" transform="translate(-495.516 -89.064)" fill="none"/>
    </clipPath>
    <linearGradient id="linear-gradient-44" x1="-26.078" y1="5.561" x2="-26.025" y2="5.561" xlink:href="#linear-gradient-4"/>
    <clipPath id="clip-path-45">
      <path id="Path_2131" data-name="Path 2131" d="M506.523,99.343l-11.007-8.477,12.236-10.622,11.454,7.815Z" transform="translate(-495.516 -80.244)" fill="none"/>
    </clipPath>
    <linearGradient id="linear-gradient-45" x1="-25.19" y1="7.242" x2="-25.139" y2="7.242" xlink:href="#linear-gradient"/>
  </defs>
  <g id="cube" transform="translate(-23.661)">
    <g id="Group_155" data-name="Group 155" transform="translate(70.132 107.506)">
      <g id="Group_154" data-name="Group 154" clip-path="url(#clip-path)">
        <rect id="Rectangle_219" data-name="Rectangle 219" width="44.515" height="42.41" transform="translate(-12.684 7.899) rotate(-31.913)" fill="url(#linear-gradient)"/>
      </g>
    </g>
    <g id="Group_157" data-name="Group 157" transform="translate(69.908 130.559)">
      <g id="Group_156" data-name="Group 156" clip-path="url(#clip-path-2)">
        <rect id="Rectangle_220" data-name="Rectangle 220" width="41.335" height="40.289" transform="matrix(0.748, -0.663, 0.663, 0.748, -11.297, 10.013)" fill="url(#linear-gradient-2)"/>
      </g>
    </g>
    <g id="Group_159" data-name="Group 159" transform="translate(53.861 110.96)">
      <g id="Group_158" data-name="Group 158" clip-path="url(#clip-path-3)">
        <rect id="Rectangle_221" data-name="Rectangle 221" width="44.568" height="36.24" transform="translate(-2.925 42.155) rotate(-86.031)" fill="url(#linear-gradient-3)"/>
      </g>
    </g>
    <g id="Group_161" data-name="Group 161" transform="translate(151.929 78.991)">
      <g id="Group_160" data-name="Group 160" clip-path="url(#clip-path-4)">
        <rect id="Rectangle_222" data-name="Rectangle 222" width="89.772" height="99.505" transform="matrix(0.821, -0.571, 0.571, 0.821, -41.032, 28.567)" fill="url(#linear-gradient-4)"/>
      </g>
    </g>
    <g id="Group_163" data-name="Group 163" transform="translate(187.277 94.33)">
      <g id="Group_162" data-name="Group 162" transform="translate(0)" clip-path="url(#clip-path-5)">
        <rect id="Rectangle_223" data-name="Rectangle 223" width="92.673" height="94.793" transform="translate(-29.055 14.687) rotate(-26.816)" fill="url(#linear-gradient-5)"/>
      </g>
    </g>
    <g id="Group_165" data-name="Group 165" transform="translate(162.822 78.991)">
      <g id="Group_164" data-name="Group 164" transform="translate(0)" clip-path="url(#clip-path-6)">
        <rect id="Rectangle_224" data-name="Rectangle 224" width="91.816" height="17.785" transform="translate(0)" fill="url(#linear-gradient-6)"/>
      </g>
    </g>
    <g id="Group_167" data-name="Group 167" transform="translate(246.747 107.537)">
      <g id="Group_166" data-name="Group 166" clip-path="url(#clip-path-7)">
        <rect id="Rectangle_225" data-name="Rectangle 225" width="112.072" height="125.031" transform="translate(-21.982 4.658) rotate(-11.963)" fill="url(#linear-gradient-7)"/>
      </g>
    </g>
    <g id="Group_169" data-name="Group 169" transform="translate(212.047 177.679)">
      <g id="Group_168" data-name="Group 168" clip-path="url(#clip-path-8)">
        <rect id="Rectangle_226" data-name="Rectangle 226" width="102.619" height="121.497" transform="matrix(0.492, -0.87, 0.87, 0.492, -24.541, 43.395)" fill="url(#linear-gradient-8)"/>
      </g>
    </g>
    <g id="Group_171" data-name="Group 171" transform="translate(212.047 107.537)">
      <g id="Group_170" data-name="Group 170" clip-path="url(#clip-path-9)">
        <rect id="Rectangle_227" data-name="Rectangle 227" width="111.031" height="102.547" transform="translate(-43.171 63.541) rotate(-55.807)" fill="url(#linear-gradient-9)"/>
      </g>
    </g>
    <g id="Group_173" data-name="Group 173" transform="translate(354.651 25.402)">
      <g id="Group_172" data-name="Group 172" clip-path="url(#clip-path-10)">
        <rect id="Rectangle_228" data-name="Rectangle 228" width="95.521" height="101.362" transform="translate(-26.154 55.577) rotate(-64.799)" fill="url(#linear-gradient-10)"/>
      </g>
    </g>
    <g id="Group_175" data-name="Group 175" transform="translate(339.176)">
      <g id="Group_174" data-name="Group 174" clip-path="url(#clip-path-11)">
        <rect id="Rectangle_229" data-name="Rectangle 229" width="46.924" height="83.384" transform="translate(-4.9 0.298) rotate(-3.475)" fill="url(#linear-gradient-11)"/>
      </g>
    </g>
    <g id="Group_177" data-name="Group 177" transform="translate(363.177)">
      <g id="Group_176" data-name="Group 176" clip-path="url(#clip-path-12)">
        <rect id="Rectangle_230" data-name="Rectangle 230" width="83.366" height="71.525" transform="matrix(0.883, -0.469, 0.469, 0.883, -17.804, 9.442)" fill="url(#linear-gradient-12)"/>
      </g>
    </g>
    <g id="Group_179" data-name="Group 179" transform="translate(112.172 90.009)">
      <g id="Group_178" data-name="Group 178" clip-path="url(#clip-path-13)">
        <rect id="Rectangle_231" data-name="Rectangle 231" width="59.735" height="72.849" transform="translate(0 0)" fill="url(#linear-gradient-13)"/>
      </g>
    </g>
    <g id="Group_181" data-name="Group 181" transform="translate(86.957 123.69)">
      <g id="Group_180" data-name="Group 180" clip-path="url(#clip-path-14)">
        <rect id="Rectangle_232" data-name="Rectangle 232" width="57.338" height="40.27" transform="translate(0 0)" fill="url(#linear-gradient-14)"/>
      </g>
    </g>
    <g id="Group_183" data-name="Group 183" transform="translate(86.957 90.009)">
      <g id="Group_182" data-name="Group 182" clip-path="url(#clip-path-15)">
        <rect id="Rectangle_233" data-name="Rectangle 233" width="56.937" height="38.314" transform="translate(0 0)" fill="url(#linear-gradient-15)"/>
      </g>
    </g>
    <g id="Group_185" data-name="Group 185" transform="translate(31.547 133.458)">
      <g id="Group_184" data-name="Group 184" clip-path="url(#clip-path-16)">
        <rect id="Rectangle_234" data-name="Rectangle 234" width="13.701" height="16.71" transform="translate(0 0)" fill="url(#linear-gradient-16)"/>
      </g>
    </g>
    <g id="Group_187" data-name="Group 187" transform="translate(25.764 141.183)">
      <g id="Group_186" data-name="Group 186" clip-path="url(#clip-path-17)">
        <rect id="Rectangle_235" data-name="Rectangle 235" width="13.152" height="9.236" fill="url(#linear-gradient-17)"/>
      </g>
    </g>
    <g id="Group_189" data-name="Group 189" transform="translate(25.764 133.458)">
      <g id="Group_188" data-name="Group 188" clip-path="url(#clip-path-18)">
        <rect id="Rectangle_236" data-name="Rectangle 236" width="13.06" height="8.788" transform="translate(0 0)" fill="url(#linear-gradient-18)"/>
      </g>
    </g>
    <g id="Group_191" data-name="Group 191" transform="translate(227.06 1.947)">
      <g id="Group_190" data-name="Group 190" clip-path="url(#clip-path-19)">
        <rect id="Rectangle_237" data-name="Rectangle 237" width="155.62" height="155.219" transform="matrix(0.737, -0.676, 0.676, 0.737, -53.145, 48.78)" fill="url(#linear-gradient-19)"/>
      </g>
    </g>
    <g id="Group_193" data-name="Group 193" transform="translate(328.462 1.947)">
      <g id="Group_192" data-name="Group 192" clip-path="url(#clip-path-20)">
        <rect id="Rectangle_238" data-name="Rectangle 238" width="118.189" height="159.085" transform="translate(-61.164 31.478) rotate(-27.232)" fill="url(#linear-gradient-20)"/>
      </g>
    </g>
    <g id="Group_195" data-name="Group 195" transform="translate(227.06 87.446)">
      <g id="Group_194" data-name="Group 194" clip-path="url(#clip-path-21)">
        <rect id="Rectangle_239" data-name="Rectangle 239" width="165.249" height="151.538" transform="matrix(0.805, -0.594, 0.594, 0.805, -38.604, 28.473)" fill="url(#linear-gradient-21)"/>
      </g>
    </g>
    <g id="Group_197" data-name="Group 197" transform="translate(503.834 51.69)">
      <g id="Group_196" data-name="Group 196" clip-path="url(#clip-path-22)">
        <rect id="Rectangle_240" data-name="Rectangle 240" width="59.581" height="42.405" transform="matrix(0.1, -0.995, 0.995, 0.1, -5.585, 55.606)" fill="url(#linear-gradient-22)"/>
      </g>
    </g>
    <g id="Group_199" data-name="Group 199" transform="translate(471.163 76.263)">
      <g id="Group_198" data-name="Group 198" clip-path="url(#clip-path-23)">
        <rect id="Rectangle_241" data-name="Rectangle 241" width="58.027" height="56.911" transform="matrix(0.737, -0.676, 0.676, 0.737, -15.737, 14.426)" fill="url(#linear-gradient-23)"/>
      </g>
    </g>
    <g id="Group_201" data-name="Group 201" transform="translate(471.163 41.676)">
      <g id="Group_200" data-name="Group 200" clip-path="url(#clip-path-24)">
        <rect id="Rectangle_242" data-name="Rectangle 242" width="69.091" height="65.315" transform="translate(-17.965 8.485) rotate(-25.281)" fill="url(#linear-gradient-24)"/>
      </g>
    </g>
    <g id="Group_203" data-name="Group 203" transform="translate(475.62 95.447)">
      <g id="Group_202" data-name="Group 202" clip-path="url(#clip-path-25)">
        <rect id="Rectangle_243" data-name="Rectangle 243" width="97.806" height="101.195" transform="translate(-35.843 23.767) rotate(-33.548)" fill="url(#linear-gradient-25)"/>
      </g>
    </g>
    <g id="Group_205" data-name="Group 205" transform="translate(450.709 145.802)">
      <g id="Group_204" data-name="Group 204" clip-path="url(#clip-path-26)">
        <rect id="Rectangle_244" data-name="Rectangle 244" width="76.952" height="41.117" transform="translate(0 0)" fill="url(#linear-gradient-26)"/>
      </g>
    </g>
    <g id="Group_207" data-name="Group 207" transform="translate(450.709 95.447)">
      <g id="Group_206" data-name="Group 206" clip-path="url(#clip-path-27)">
        <rect id="Rectangle_245" data-name="Rectangle 245" width="63.215" height="77.344" transform="translate(-20.724 7.224) rotate(-19.218)" fill="url(#linear-gradient-27)"/>
      </g>
    </g>
    <g id="Group_209" data-name="Group 209" transform="translate(392.784 33.398)">
      <g id="Group_208" data-name="Group 208" clip-path="url(#clip-path-28)">
        <rect id="Rectangle_246" data-name="Rectangle 246" width="106.763" height="122.493" transform="matrix(0.993, -0.12, 0.12, 0.993, -13.362, 1.617)" fill="url(#linear-gradient-28)"/>
      </g>
    </g>
    <g id="Group_211" data-name="Group 211" transform="translate(356.24 101.001)">
      <g id="Group_210" data-name="Group 210" clip-path="url(#clip-path-29)">
        <rect id="Rectangle_247" data-name="Rectangle 247" width="116.909" height="83.912" transform="translate(-14.257 3.616) rotate(-14.232)" fill="url(#linear-gradient-29)"/>
      </g>
    </g>
    <g id="Group_213" data-name="Group 213" transform="translate(356.24 33.398)">
      <g id="Group_212" data-name="Group 212" clip-path="url(#clip-path-30)">
        <rect id="Rectangle_248" data-name="Rectangle 248" width="110.792" height="105.949" transform="translate(-40.635 59.47) rotate(-55.656)" fill="url(#linear-gradient-30)"/>
      </g>
    </g>
    <g id="Group_219" data-name="Group 219" transform="translate(643.156 110.11)">
      <g id="Group_218" data-name="Group 218" clip-path="url(#clip-path-31)">
        <rect id="Rectangle_251" data-name="Rectangle 251" width="15.359" height="11.625" transform="translate(-1.753 0.352) rotate(-11.363)" fill="url(#linear-gradient-31)"/>
      </g>
    </g>
    <g id="Group_221" data-name="Group 221" transform="translate(649.322 114.937)">
      <g id="Group_220" data-name="Group 220" clip-path="url(#clip-path-32)">
        <rect id="Rectangle_252" data-name="Rectangle 252" width="13.589" height="14.449" transform="translate(-5.95 4.563) rotate(-37.484)" fill="url(#linear-gradient-32)"/>
      </g>
    </g>
    <g id="Group_223" data-name="Group 223" transform="translate(640.758 113.901)">
      <g id="Group_222" data-name="Group 222" clip-path="url(#clip-path-33)">
        <rect id="Rectangle_253" data-name="Rectangle 253" width="15.719" height="16.745" transform="matrix(0.922, -0.388, 0.388, 0.922, -4.773, 2.007)" fill="url(#linear-gradient-33)"/>
      </g>
    </g>
    <g id="Group_225" data-name="Group 225" transform="translate(557.082 99.837)">
      <g id="Group_224" data-name="Group 224" clip-path="url(#clip-path-34)">
        <rect id="Rectangle_254" data-name="Rectangle 254" width="34.838" height="28.266" fill="url(#linear-gradient-34)"/>
      </g>
    </g>
    <g id="Group_227" data-name="Group 227" transform="translate(556.858 122.89)">
      <g id="Group_226" data-name="Group 226" clip-path="url(#clip-path-35)">
        <rect id="Rectangle_255" data-name="Rectangle 255" width="40.845" height="40.926" transform="matrix(0.704, -0.71, 0.71, 0.704, -11.379, 11.485)" fill="url(#linear-gradient-35)"/>
      </g>
    </g>
    <g id="Group_229" data-name="Group 229" transform="translate(540.811 103.29)">
      <g id="Group_228" data-name="Group 228" clip-path="url(#clip-path-36)">
        <rect id="Rectangle_256" data-name="Rectangle 256" width="46.655" height="39.043" transform="translate(-5.93 41.512) rotate(-81.87)" fill="url(#linear-gradient-36)"/>
      </g>
    </g>
    <g id="Group_231" data-name="Group 231" transform="translate(370.351 190.251)">
      <g id="Group_230" data-name="Group 230" clip-path="url(#clip-path-37)">
        <rect id="Rectangle_257" data-name="Rectangle 257" width="15.885" height="20.827" transform="translate(0)" fill="url(#linear-gradient-37)"/>
      </g>
    </g>
    <g id="Group_233" data-name="Group 233" transform="translate(359.344 193.057)">
      <g id="Group_232" data-name="Group 232" clip-path="url(#clip-path-38)">
        <rect id="Rectangle_258" data-name="Rectangle 258" width="23.312" height="23.529" transform="matrix(0.744, -0.668, 0.668, 0.744, -8.959, 8.047)" fill="url(#linear-gradient-38)"/>
      </g>
    </g>
    <g id="Group_235" data-name="Group 235" transform="translate(359.344 182.436)">
      <g id="Group_234" data-name="Group 234" clip-path="url(#clip-path-39)">
        <rect id="Rectangle_259" data-name="Rectangle 259" width="23.69" height="19.099" transform="translate(0)" fill="url(#linear-gradient-39)"/>
      </g>
    </g>
    <g id="Group_237" data-name="Group 237" transform="translate(34.668 97.113)">
      <g id="Group_236" data-name="Group 236" clip-path="url(#clip-path-40)">
        <rect id="Rectangle_260" data-name="Rectangle 260" width="15.885" height="20.827" transform="translate(0 0)" fill="url(#linear-gradient-40)"/>
      </g>
    </g>
    <g id="Group_239" data-name="Group 239" transform="translate(23.661 99.92)">
      <g id="Group_238" data-name="Group 238" clip-path="url(#clip-path-41)">
        <rect id="Rectangle_261" data-name="Rectangle 261" width="23.311" height="23.528" transform="matrix(0.744, -0.668, 0.668, 0.744, -8.958, 8.046)" fill="url(#linear-gradient-41)"/>
      </g>
    </g>
    <g id="Group_241" data-name="Group 241" transform="translate(23.661 89.298)">
      <g id="Group_240" data-name="Group 240" clip-path="url(#clip-path-42)">
        <rect id="Rectangle_262" data-name="Rectangle 262" width="23.69" height="19.099" fill="url(#linear-gradient-42)"/>
      </g>
    </g>
    <g id="Group_243" data-name="Group 243" transform="translate(602.927 104.453)">
      <g id="Group_242" data-name="Group 242" clip-path="url(#clip-path-43)">
        <rect id="Rectangle_263" data-name="Rectangle 263" width="23.213" height="19.176" transform="translate(-3.469 20.234) rotate(-80.272)" fill="url(#linear-gradient-43)"/>
      </g>
    </g>
    <g id="Group_245" data-name="Group 245" transform="translate(591.92 107.26)">
      <g id="Group_244" data-name="Group 244" clip-path="url(#clip-path-44)">
        <rect id="Rectangle_264" data-name="Rectangle 264" width="22.738" height="23.448" transform="translate(-8.46 5.91) rotate(-34.935)" fill="url(#linear-gradient-44)"/>
      </g>
    </g>
    <g id="Group_247" data-name="Group 247" transform="translate(591.92 96.638)">
      <g id="Group_246" data-name="Group 246" clip-path="url(#clip-path-45)">
        <rect id="Rectangle_265" data-name="Rectangle 265" width="23.69" height="19.099" transform="translate(0)" fill="url(#linear-gradient-45)"/>
      </g>
    </g>
  </g>
</svg>
