<svg id="coinbase_wallet" xmlns="http://www.w3.org/2000/svg" width="32" height="32" viewBox="0 0 32 32">
  <path id="Path_17204" data-name="Path 17204" d="M0,7.385A7.385,7.385,0,0,1,7.385,0H24.615A7.385,7.385,0,0,1,32,7.385V24.615A7.385,7.385,0,0,1,24.615,32H7.385A7.385,7.385,0,0,1,0,24.615Z" fill="#0052ff"/>
  <path id="Path_17205" data-name="Path 17205" d="M15.975,21a5,5,0,1,1,5.013-6H26a9.984,9.984,0,1,0,0,2H20.987C20.987,19,17.98,21,15.975,21Z" transform="translate(0 0)" fill="#fff"/>
</svg>
