<svg width="24" height="24" viewBox="0 0 24 24" fill="none" xmlns="http://www.w3.org/2000/svg">
<g clip-path="url(#clip0_1_2445)">
<path d="M12 9V11M12 15V15.01" stroke="#FF3C3C" stroke-width="2" stroke-linecap="round" stroke-linejoin="round"/>
<path d="M5.00001 19H19C19.3263 18.9977 19.6471 18.9156 19.9344 18.7609C20.2217 18.6061 20.4668 18.3835 20.6482 18.1123C20.8297 17.841 20.942 17.5296 20.9755 17.205C21.0089 16.8804 20.9624 16.5525 20.84 16.25L13.74 4.00002C13.567 3.68741 13.3135 3.42685 13.0058 3.2454C12.698 3.06396 12.3473 2.96826 11.99 2.96826C11.6327 2.96826 11.282 3.06396 10.9743 3.2454C10.6665 3.42685 10.413 3.68741 10.24 4.00002L3.14001 16.25C3.01995 16.5456 2.97234 16.8656 3.00116 17.1833C3.02997 17.501 3.13438 17.8073 3.30566 18.0764C3.47694 18.3456 3.71012 18.5698 3.98573 18.7305C4.26135 18.8912 4.5714 18.9836 4.89001 19" stroke="#FF3C3C" stroke-width="2" stroke-linecap="round" stroke-linejoin="round"/>
</g>
<defs>
<clipPath id="clip0_1_2445">
<rect width="24" height="24" fill="white"/>
</clipPath>
</defs>
</svg>
