<svg width="29" height="20" viewBox="0 0 29 20" fill="none" xmlns="http://www.w3.org/2000/svg">
<path d="M27.5455 2.82838C27.2214 1.62349 26.2714 0.673701 25.0667 0.349253C22.8658 -0.25293 14.0621 -0.25293 14.0621 -0.25293C14.0621 -0.25293 5.25885 -0.25293 3.05798 0.326445C1.87642 0.650541 0.903296 1.62371 0.579199 2.82838C0 5.02907 0 9.5931 0 9.5931C0 9.5931 0 14.1801 0.579199 16.3577C0.903603 17.5624 1.85326 18.5123 3.05815 18.8367C5.282 19.439 14.0625 19.439 14.0625 19.439C14.0625 19.439 22.8658 19.439 25.0667 18.8597C26.2716 18.5354 27.2214 17.5856 27.5458 16.3809C28.1248 14.18 28.1248 9.61621 28.1248 9.61621C28.1248 9.61621 28.148 5.02903 27.5455 2.82838ZM11.2592 13.8094V5.37664L18.5799 9.59301L11.2592 13.8094Z" fill="#16EBC3"/>
</svg>
