<svg xmlns="http://www.w3.org/2000/svg" width="20" height="20" viewBox="0 0 20 20">
  <g id="Group_2883" data-name="Group 2883" transform="translate(-15245 3521)">
    <path id="_13e5cb26d03bb99d864414189f28c138" data-name="13e5cb26d03bb99d864414189f28c138" d="M61.027,64a5.315,5.315,0,0,0-4.043,1.9A5.315,5.315,0,0,0,52.941,64,4.886,4.886,0,0,0,48,68.971c0,3.435,3.055,6.192,7.681,10.44l1.3,1.175,1.3-1.175c4.627-4.248,7.681-7.005,7.681-10.44A4.886,4.886,0,0,0,61.027,64ZM57.539,78.222l-.182.167-.372.336-.372-.336-.182-.167a55,55,0,0,1-5.3-5.269,6.355,6.355,0,0,1-1.746-3.981,3.6,3.6,0,0,1,1.024-2.562,3.538,3.538,0,0,1,2.535-1.027,3.953,3.953,0,0,1,2.985,1.406l1.058,1.258,1.058-1.258a3.953,3.953,0,0,1,2.985-1.406,3.538,3.538,0,0,1,2.535,1.027,3.6,3.6,0,0,1,1.024,2.562,6.355,6.355,0,0,1-1.746,3.981A55,55,0,0,1,57.539,78.222Z" transform="translate(15198.016 -3583.293)" fill="#16ebc3"/>
    <rect id="Rectangle_1138" data-name="Rectangle 1138" width="20" height="20" transform="translate(15245 -3521)" fill="none"/>
  </g>
</svg>
