<svg xmlns="http://www.w3.org/2000/svg" width="20" height="20" viewBox="0 0 20 20">
  <g id="Group_2882" data-name="Group 2882" transform="translate(-15146 3509)">
    <g id="_51a3dbe0e593ba390ac13cba118295e4" data-name="51a3dbe0e593ba390ac13cba118295e4" transform="translate(15143.977 -3511.267)">
      <path id="Path_803" data-name="Path 803" d="M12.3,5.671l-.277.277-.277-.277a5.094,5.094,0,1,0-7.2,7.2l.278.277,7.2,7.2,7.2-7.2.277-.277a5.094,5.094,0,1,0-7.2-7.2Z" fill="#16ebc3"/>
      <path id="Path_804" data-name="Path 804" d="M12.3,5.671l-.277.277-.277-.277a5.094,5.094,0,1,0-7.2,7.2l.278.277,7.2,7.2,7.2-7.2.277-.277a5.094,5.094,0,1,0-7.2-7.2Z" fill="#16ebc3"/>
    </g>
    <rect id="Rectangle_1137" data-name="Rectangle 1137" width="20" height="20" transform="translate(15146 -3509)" fill="none"/>
  </g>
</svg>
